<?xml version="1.0" encoding="UTF-8"?><svg id="Calque_1" xmlns="http://www.w3.org/2000/svg" xmlns:xlink="http://www.w3.org/1999/xlink" viewBox="0 0 240 70"><defs><style>.cls-1{fill:url(#Dégradé_sans_nom_2);}.cls-1,.cls-2,.cls-3,.cls-4,.cls-5,.cls-6,.cls-7,.cls-8,.cls-9,.cls-10,.cls-11,.cls-12,.cls-13,.cls-14,.cls-15,.cls-16,.cls-17,.cls-18,.cls-19,.cls-20,.cls-21,.cls-22,.cls-23,.cls-24,.cls-25,.cls-26,.cls-27,.cls-28,.cls-29{fill-rule:evenodd;stroke-width:0px;}.cls-30{fill:url(#Dégradé_sans_nom_88);}.cls-30,.cls-31,.cls-32,.cls-33,.cls-34,.cls-35,.cls-36{stroke:#821010;}.cls-2{fill:url(#Dégradé_sans_nom_72);}.cls-3{fill:url(#Dégradé_sans_nom_28);}.cls-37{stroke:url(#Dégradé_sans_nom_80);}.cls-37,.cls-38,.cls-39,.cls-40,.cls-41,.cls-42,.cls-43,.cls-44{fill:none;stroke-width:1.88976px;}.cls-45{stroke:#fff;stroke-width:13px;}.cls-4{fill:url(#Dégradé_sans_nom_4);}.cls-5{fill:url(#Dégradé_sans_nom_49);}.cls-6{fill:url(#Dégradé_sans_nom_24);}.cls-7{fill:url(#Dégradé_sans_nom_46);}.cls-31{fill:url(#Dégradé_sans_nom_82);}.cls-8{fill:url(#Dégradé_sans_nom_25);}.cls-32{fill:url(#Dégradé_sans_nom_85);}.cls-9{fill:url(#Dégradé_sans_nom_52);}.cls-38{stroke:url(#Dégradé_sans_nom_11);}.cls-10{fill:url(#Dégradé_sans_nom_70);}.cls-11{fill:url(#Dégradé_sans_nom_29);}.cls-12{fill:url(#Dégradé_sans_nom_7);}.cls-13{fill:url(#Dégradé_sans_nom_5);}.cls-39{stroke:url(#Dégradé_sans_nom_79);}.cls-14{fill:url(#Dégradé_sans_nom_71);}.cls-40{stroke:url(#Dégradé_sans_nom_76);}.cls-15{fill:#0f0f0f;}.cls-16{fill:url(#Dégradé_sans_nom_73);}.cls-17{fill:url(#Dégradé_sans_nom_69);}.cls-18{fill:#191919;}.cls-33{fill:url(#Dégradé_sans_nom_84);}.cls-19{fill:#fff;}.cls-46{stroke:#0f0f0f;stroke-width:9px;}.cls-41{stroke:url(#Dégradé_sans_nom_81);}.cls-20{fill:url(#Dégradé_sans_nom_74);}.cls-21{fill:url(#Dégradé_sans_nom_48);}.cls-34{fill:url(#Dégradé_sans_nom_87);}.cls-22{fill:url(#Dégradé_sans_nom_47);}.cls-23{fill:url(#Dégradé_sans_nom_26);}.cls-24{fill:url(#Dégradé_sans_nom_6);}.cls-35{fill:url(#Dégradé_sans_nom_83);}.cls-42{stroke:url(#Dégradé_sans_nom_77);}.cls-36{fill:url(#Dégradé_sans_nom_86);}.cls-25{fill:url(#Dégradé_sans_nom_51);}.cls-26{fill:url(#Dégradé_sans_nom_3);}.cls-27{fill:url(#Dégradé_sans_nom_50);}.cls-28{fill:url(#Dégradé_sans_nom);}.cls-43{stroke:url(#Dégradé_sans_nom_78);}.cls-29{fill:url(#Dégradé_sans_nom_27);}.cls-44{stroke:url(#Dégradé_sans_nom_75);}</style><linearGradient id="Dégradé_sans_nom" x1="16969.84282" y1="-16627.58942" x2="18608.24321" y2="-16627.58942" gradientTransform="translate(-1074.64999 -667.13679) rotate(90) scale(.0368 .0676)" gradientUnits="userSpaceOnUse"><stop offset="0" stop-color="#b6d5e3"/><stop offset="1" stop-color="#3d9ee8"/></linearGradient><linearGradient id="Dégradé_sans_nom_2" x1="31518.33852" y1="-16586.16948" x2="33156.73794" y2="-16586.16948" gradientTransform="translate(-1071.85001 -657.12079) rotate(90) scale(.0208 .0676)" gradientUnits="userSpaceOnUse"><stop offset="0" stop-color="#0fa"/><stop offset="1" stop-color="#3d9ee8"/></linearGradient><linearGradient id="Dégradé_sans_nom_3" x1="23930.40509" y1="-16677.88564" x2="25568.80549" y2="-16677.88564" gradientTransform="translate(-1078.05002 -633.21441) rotate(90) scale(.0269 .0676)" gradientUnits="userSpaceOnUse"><stop offset="0" stop-color="#f60"/><stop offset="1" stop-color="#3d9ee8"/></linearGradient><linearGradient id="Dégradé_sans_nom_4" x1="23962.43927" y1="-16466.34716" x2="25557.17853" y2="-16466.34716" gradientTransform="translate(-1078.05002 -633.21441) rotate(90) scale(.0269 .0676)" gradientUnits="userSpaceOnUse"><stop offset="0" stop-color="#f60"/><stop offset="1" stop-color="#3d9ee8"/></linearGradient><linearGradient id="Dégradé_sans_nom_5" x1="22764.6921" y1="-17049.01153" x2="24403.09249" y2="-17049.01153" gradientTransform="translate(-1100.35002 -641.41559) rotate(90) scale(.0281 .0658) skewX(-.2039)" gradientUnits="userSpaceOnUse"><stop offset="0" stop-color="#f70095"/><stop offset="1" stop-color="#3d9ee8"/></linearGradient><linearGradient id="Dégradé_sans_nom_6" x1="25686.61211" y1="-18679.45037" x2="27325.01152" y2="-18679.45037" gradientTransform="translate(-1116.79907 -653.80256) rotate(89.11176) scale(.0258 .05961) skewX(-.05335)" gradientUnits="userSpaceOnUse"><stop offset="0" stop-color="#b6d5e3"/><stop offset="1" stop-color="#3d9ee8"/></linearGradient><linearGradient id="Dégradé_sans_nom_7" x1="31199.65731" y1="-18949.24508" x2="32838.0577" y2="-18949.24508" gradientTransform="translate(-1119.69999 -667.996) rotate(90) scale(.021 .0596)" gradientUnits="userSpaceOnUse"><stop offset="0" stop-color="#3ec4fd"/><stop offset="1" stop-color="#3d9ee8"/></linearGradient><linearGradient id="Dégradé_sans_nom_11" x1="56.91699" y1="17.99015" x2="56.91699" y2="48.66784" gradientTransform="translate(0 72) scale(1 -1)" gradientUnits="userSpaceOnUse"><stop offset="0" stop-color="#c1272d" stop-opacity=".6"/><stop offset="1" stop-color="#c1272d" stop-opacity="0"/></linearGradient><linearGradient id="Dégradé_sans_nom_24" x1="16969.84282" y1="-16627.58942" x2="18608.24321" y2="-16627.58942" gradientTransform="translate(-1074.64999 -667.13679) rotate(90) scale(.0368 .0676)" gradientUnits="userSpaceOnUse"><stop offset="0" stop-color="#b6d5e3"/><stop offset="1" stop-color="#3d9ee8"/></linearGradient><linearGradient id="Dégradé_sans_nom_25" x1="31518.33852" y1="-16586.16948" x2="33156.73794" y2="-16586.16948" gradientTransform="translate(-1071.85001 -657.12079) rotate(90) scale(.0208 .0676)" gradientUnits="userSpaceOnUse"><stop offset="0" stop-color="#0fa"/><stop offset="1" stop-color="#3d9ee8"/></linearGradient><linearGradient id="Dégradé_sans_nom_26" x1="23930.40509" y1="-16466.34716" x2="25568.80549" y2="-16466.34716" gradientTransform="translate(-1078.05002 -633.21441) rotate(90) scale(.0269 .0676)" gradientUnits="userSpaceOnUse"><stop offset="0" stop-color="#f60"/><stop offset="1" stop-color="#3d9ee8"/></linearGradient><linearGradient id="Dégradé_sans_nom_27" x1="22764.6921" y1="-17049.01153" x2="24403.09249" y2="-17049.01153" gradientTransform="translate(-1100.35002 -641.41559) rotate(90) scale(.0281 .0658) skewX(-.2039)" gradientUnits="userSpaceOnUse"><stop offset="0" stop-color="#f70095"/><stop offset="1" stop-color="#3d9ee8"/></linearGradient><linearGradient id="Dégradé_sans_nom_28" x1="25686.61211" y1="-18679.45037" x2="27325.01152" y2="-18679.45037" gradientTransform="translate(-1116.79907 -653.80256) rotate(89.11176) scale(.0258 .05961) skewX(-.05335)" gradientUnits="userSpaceOnUse"><stop offset="0" stop-color="#b6d5e3"/><stop offset="1" stop-color="#3d9ee8"/></linearGradient><linearGradient id="Dégradé_sans_nom_29" x1="31199.65731" y1="-18949.24508" x2="32838.0577" y2="-18949.24508" gradientTransform="translate(-1119.69999 -667.996) rotate(90) scale(.021 .0596)" gradientUnits="userSpaceOnUse"><stop offset="0" stop-color="#3ec4fd"/><stop offset="1" stop-color="#3d9ee8"/></linearGradient><linearGradient id="Dégradé_sans_nom_46" x1="16969.84282" y1="-16627.58942" x2="18608.24321" y2="-16627.58942" gradientTransform="translate(-1074.64999 -667.13679) rotate(90) scale(.0368 .0676)" gradientUnits="userSpaceOnUse"><stop offset="0" stop-color="#b6d5e3"/><stop offset="1" stop-color="#3d9ee8"/></linearGradient><linearGradient id="Dégradé_sans_nom_47" x1="31518.33852" y1="-16586.16948" x2="33156.73794" y2="-16586.16948" gradientTransform="translate(-1071.85001 -657.12079) rotate(90) scale(.0208 .0676)" gradientUnits="userSpaceOnUse"><stop offset="0" stop-color="#0fa"/><stop offset="1" stop-color="#3d9ee8"/></linearGradient><linearGradient id="Dégradé_sans_nom_48" x1="23930.40509" y1="-16677.88564" x2="25568.80549" y2="-16677.88564" gradientTransform="translate(-1078.05002 -633.21441) rotate(90) scale(.0269 .0676)" gradientUnits="userSpaceOnUse"><stop offset="0" stop-color="#f60"/><stop offset="1" stop-color="#3d9ee8"/></linearGradient><linearGradient id="Dégradé_sans_nom_49" x1="23962.43927" y1="-16466.34716" x2="25557.17853" y2="-16466.34716" gradientTransform="translate(-1078.05002 -633.21441) rotate(90) scale(.0269 .0676)" gradientUnits="userSpaceOnUse"><stop offset="0" stop-color="#f60"/><stop offset="1" stop-color="#3d9ee8"/></linearGradient><linearGradient id="Dégradé_sans_nom_50" x1="22764.6921" y1="-17049.01153" x2="24403.09249" y2="-17049.01153" gradientTransform="translate(-1100.35002 -641.41559) rotate(90) scale(.0281 .0658) skewX(-.2039)" gradientUnits="userSpaceOnUse"><stop offset="0" stop-color="#f70095"/><stop offset="1" stop-color="#3d9ee8"/></linearGradient><linearGradient id="Dégradé_sans_nom_51" x1="25686.61211" y1="-18679.45037" x2="27325.01152" y2="-18679.45037" gradientTransform="translate(-1116.79907 -653.80256) rotate(89.11176) scale(.0258 .05961) skewX(-.05335)" gradientUnits="userSpaceOnUse"><stop offset="0" stop-color="#b6d5e3"/><stop offset="1" stop-color="#3d9ee8"/></linearGradient><linearGradient id="Dégradé_sans_nom_52" x1="31199.65731" y1="-18949.24508" x2="32838.0577" y2="-18949.24508" gradientTransform="translate(-1119.69999 -667.996) rotate(90) scale(.021 .0596)" gradientUnits="userSpaceOnUse"><stop offset="0" stop-color="#3ec4fd"/><stop offset="1" stop-color="#3d9ee8"/></linearGradient><linearGradient id="Dégradé_sans_nom_69" x1="16969.84282" y1="-16627.58942" x2="18608.24321" y2="-16627.58942" gradientTransform="translate(-1074.64999 -667.13679) rotate(90) scale(.0368 .0676)" gradientUnits="userSpaceOnUse"><stop offset="0" stop-color="#b6d5e3"/><stop offset="1" stop-color="#3d9ee8"/></linearGradient><linearGradient id="Dégradé_sans_nom_70" x1="31518.33852" y1="-16586.16948" x2="33156.73794" y2="-16586.16948" gradientTransform="translate(-1071.85001 -657.12079) rotate(90) scale(.0208 .0676)" gradientUnits="userSpaceOnUse"><stop offset="0" stop-color="#0fa"/><stop offset="1" stop-color="#3d9ee8"/></linearGradient><linearGradient id="Dégradé_sans_nom_71" x1="23930.40509" y1="-16466.34716" x2="25568.80549" y2="-16466.34716" gradientTransform="translate(-1078.05002 -633.21441) rotate(90) scale(.0269 .0676)" gradientUnits="userSpaceOnUse"><stop offset="0" stop-color="#f60"/><stop offset="1" stop-color="#3d9ee8"/></linearGradient><linearGradient id="Dégradé_sans_nom_72" x1="22764.6921" y1="-17049.01153" x2="24403.09249" y2="-17049.01153" gradientTransform="translate(-1100.35002 -641.41559) rotate(90) scale(.0281 .0658) skewX(-.2039)" gradientUnits="userSpaceOnUse"><stop offset="0" stop-color="#f70095"/><stop offset="1" stop-color="#3d9ee8"/></linearGradient><linearGradient id="Dégradé_sans_nom_73" x1="25686.61211" y1="-18679.45037" x2="27325.01152" y2="-18679.45037" gradientTransform="translate(-1116.79907 -653.80256) rotate(89.11176) scale(.0258 .05961) skewX(-.05335)" gradientUnits="userSpaceOnUse"><stop offset="0" stop-color="#b6d5e3"/><stop offset="1" stop-color="#3d9ee8"/></linearGradient><linearGradient id="Dégradé_sans_nom_74" x1="31199.65731" y1="-18949.24508" x2="32838.0577" y2="-18949.24508" gradientTransform="translate(-1119.69999 -667.996) rotate(90) scale(.021 .0596)" gradientUnits="userSpaceOnUse"><stop offset="0" stop-color="#3ec4fd"/><stop offset="1" stop-color="#3d9ee8"/></linearGradient><linearGradient id="Dégradé_sans_nom_75" x1="78.22858" y1="17.78897" x2="78.22858" y2="47.2792" gradientTransform="translate(0 72) scale(1 -1)" gradientUnits="userSpaceOnUse"><stop offset="0" stop-color="#1b0000" stop-opacity=".6"/><stop offset="1" stop-color="#c1272d" stop-opacity="0"/></linearGradient><linearGradient id="Dégradé_sans_nom_76" x1="183.83594" y1="19.75415" x2="183.83594" y2="47.0032" gradientTransform="translate(0 72) scale(1 -1)" gradientUnits="userSpaceOnUse"><stop offset="0" stop-color="#1b0000" stop-opacity=".6"/><stop offset="1" stop-color="#c1272d" stop-opacity="0"/></linearGradient><linearGradient id="Dégradé_sans_nom_77" x1="163.24689" y1="13.44536" x2="163.24689" y2="47.6462" gradientTransform="translate(0 72) scale(1 -1)" gradientUnits="userSpaceOnUse"><stop offset="0" stop-color="#1b0000" stop-opacity=".6"/><stop offset="1" stop-color="#c1272d" stop-opacity="0"/></linearGradient><linearGradient id="Dégradé_sans_nom_78" x1="141.68096" y1="18.64625" x2="141.68096" y2="47.00418" gradientTransform="translate(0 72) scale(1 -1)" gradientUnits="userSpaceOnUse"><stop offset="0" stop-color="#1b0000" stop-opacity=".6"/><stop offset="1" stop-color="#c1272d" stop-opacity="0"/></linearGradient><linearGradient id="Dégradé_sans_nom_79" x1="94.13002" y1="22.7104" x2="94.13002" y2="47.32316" gradientTransform="translate(0 72) scale(1 -1)" gradientUnits="userSpaceOnUse"><stop offset="0" stop-color="#1b0000" stop-opacity=".6"/><stop offset="1" stop-color="#c1272d" stop-opacity="0"/></linearGradient><linearGradient id="Dégradé_sans_nom_80" x1="114.88443" y1="22.39043" x2="114.88443" y2="47.0032" gradientTransform="translate(0 72) scale(1 -1)" gradientUnits="userSpaceOnUse"><stop offset="0" stop-color="#1b0000" stop-opacity=".6"/><stop offset="1" stop-color="#c1272d" stop-opacity="0"/></linearGradient><linearGradient id="Dégradé_sans_nom_81" x1="46.15717" y1="31.71729" x2="67.67681" y2="31.71729" gradientTransform="translate(0 72) scale(1 -1)" gradientUnits="userSpaceOnUse"><stop offset="0" stop-color="#1b0000" stop-opacity=".6"/><stop offset="1" stop-color="#c1272d" stop-opacity="0"/></linearGradient><linearGradient id="Dégradé_sans_nom_82" x1="78.22858" y1="20.08249" x2="78.22858" y2="47.68296" gradientTransform="translate(0 72) scale(1 -1)" gradientUnits="userSpaceOnUse"><stop offset="0" stop-color="#ed1c24"/><stop offset="1" stop-color="#fbb03b"/></linearGradient><linearGradient id="Dégradé_sans_nom_84" x1="183.83594" y1="22.04767" x2="183.83594" y2="47.40696" gradientTransform="translate(0 72) scale(1 -1)" gradientUnits="userSpaceOnUse"><stop offset="0" stop-color="#ed1c24"/><stop offset="1" stop-color="#fbb03b"/></linearGradient><linearGradient id="Dégradé_sans_nom_85" x1="163.24689" y1="15.73888" x2="163.24689" y2="48.04996" gradientTransform="translate(0 72) scale(1 -1)" gradientUnits="userSpaceOnUse"><stop offset="0" stop-color="#ed1c24"/><stop offset="1" stop-color="#fbb03b"/></linearGradient><linearGradient id="Dégradé_sans_nom_86" x1="141.68096" y1="20.93976" x2="141.68096" y2="47.40793" gradientTransform="translate(0 72) scale(1 -1)" gradientUnits="userSpaceOnUse"><stop offset="0" stop-color="#ed1c24"/><stop offset="1" stop-color="#fbb03b"/></linearGradient><linearGradient id="Dégradé_sans_nom_87" x1="94.13002" y1="743.4036" x2="94.13002" y2="720.27308" gradientTransform="translate(0 -696)" gradientUnits="userSpaceOnUse"><stop offset="0" stop-color="#ed1c24"/><stop offset="1" stop-color="#fbb03b"/></linearGradient><linearGradient id="Dégradé_sans_nom_88" x1="114.89562" y1="743.75258" x2="114.89562" y2="720.62308" gradientTransform="translate(0 -696)" gradientUnits="userSpaceOnUse"><stop offset="0" stop-color="#ed1c24"/><stop offset="1" stop-color="#fbb03b"/></linearGradient><linearGradient id="Dégradé_sans_nom_83" x1="56.91699" y1="18.36788" x2="56.91699" y2="47.04992" gradientTransform="translate(0 72) scale(1 -1)" gradientUnits="userSpaceOnUse"><stop offset="0" stop-color="#ed1c24"/><stop offset="1" stop-color="#fbb03b"/></linearGradient></defs><path class="cls-28" d="m56.5-63.1l23,105.95L19.25-67.85"/><path class="cls-1" d="m47.9-63.1l31.6,105.95L19.25-67.85"/><path class="cls-26" d="m19.25-67.85l60.25,110.7"/><path class="cls-4" d="m79.5,42.85L-9.35-64.9"/><path class="cls-13" d="m-9.35-64.9L79.5,42.85-36.55-54.85"/><path class="cls-24" d="m-36.55-54.85L79.5,42.85-65.45-33.6"/><path class="cls-12" d="m-36.55-54.85L79.5,42.85-60.15-38"/><path class="cls-19" d="m229.3,22.35l2.2-.05,1.45,1.25c.89999.9,1.48334,1.85,1.75,2.85.3,1.1-.06668,3-1.10001,5.7l-.75,2.35c-.16666.76667.10001,2.6.8,5.5l.39999,2.35c.09999,1.1-.38335,2.36667-1.45,3.8-1.09999,1.4-2.28334,2.31667-3.55,2.75l-6.10001-.3-3.05-.45.05,1.2c.00002,2.16666-.7,3.58333-2.10001,4.25-1.23334.63334-2.93335.9-5.10001.8-2.06667-.1-3.61667-.48333-4.64999-1.15-2.06667-1.26667-3.48334-4.25-4.25-8.95-.23334-1.63333-.88335-2.78333-1.95-3.45l-5.05.3c-.56667.06667-1.06667-.11667-1.5-.55-.40001-.33333-.60002-.81667-.60001-1.45v-12.49999c-.00002-1.33333.66666-2,2-2h4.75l-.10001.05c2.06667-.13334,4.06667.23333,6,1.1,2.53334,1.2,4.16667,3.06667,4.89999,5.6.53334,1.96667,1.2,3.11666,2,3.45l1.55-.05.10001-.5c0-1.06667-.20001-2.03333-.60001-2.9-.26666-.5-.39999-1.06667-.39999-1.7,0-.53333.11667-1.01667.35001-1.45.56667-1.16667,1.68335-1.9,3.35001-2.2.90001-.2,2.21667.01667,3.95.65,1.83333.63333,3.43333.98333,4.8,1.05l.75-.2c.5-.63333.60001-1.68333.3-3.15-.16666-.86667.11667-1.53333.85001-2"/><path class="cls-18" d="m230.45001,24l1,.8c.7.7,1.13333,1.4,1.3,2.1.3,1.1-.33334,3.5-1.89999,7.2-.23334,1.3.18333,4.08333,1.25,8.35.03333.6-.34999,1.41667-1.14999,2.45-.79999,1.06667-1.63333,1.75-2.5,2.05l-5.2-.4-4.8-.3c-.36667.2-.53333,1.08333-.5,2.65.03334,1.56667-.29999,2.51666-1,2.85-.90001.46667-2.25.66666-4.05.6-1.73332-.1-2.98332-.38334-3.75-.85-1.59999-.96667-2.7-3.48333-3.3-7.55-.23334-1.7-.88333-3.06667-1.95-4.1l-1.5-1.1-5.64999.35-3.85001-1.1,3.85001-11.4h4.75l3.8.5c2.66667.83333,4.35001,2.43333,5.05,4.8,1.23332,4.23333,3.38333,5.78333,6.45,4.65.83334-.3,1.2-1.23333,1.10001-2.8-.06668-1.23333-.31668-2.31667-.75-3.25-.60001-1.33333.03334-2.18333,1.89999-2.55.53333-.1,1.60001.13333,3.2.7,1.86665.63334,3.55.98333,5.05,1.05,2.83334.13333,3.88333-1.76666,3.14999-5.7"/><path class="cls-19" d="m44.55,26.3c1.33333,0,2,.66667,2,2v12.5c0,.56667-.2,1.05-.6,1.45-.43333.36666-.93333.55-1.5.55l-5.05-.35c-1.06667.8-1.71667,1.95-1.95,3.45-.7,4.66667-2.11667,7.66667-4.25,9-1.03333.63334-2.58333,1-4.65,1.1-2.16667.1-3.86667-.16667-5.1-.8-1.4-.66666-2.1-2.08333-2.1-4.25l.05-1.15-3,.4-6.15.3c-1.26667-.43333-2.43333-1.35-3.5-2.75-1.1-1.4-1.6-2.66667-1.5-3.8l.4-2.3c.7-2.93333.98333-4.78333.85-5.55l-.8-2.3c-1-2.66667-1.36667-4.58333-1.1-5.75.4-1.56667,1.46667-2.91667,3.2-4.05.73333-.5,1.46667-.5,2.2,0s1.01667,1.18333.85,2.05c-.3,1.43333-.2,2.48333.3,3.15l.75.2,4.8-1.1c1.76667-.6,3.08333-.81667,3.95-.65,1.66667.36667,2.78333,1.1,3.35,2.2l.35,1.5c0,.6-.11667,1.15-.35,1.65-.4.9-.6,1.86666-.6,2.9l.05.55c.66667.2,1.2.2,1.6,0,.76667-.36667,1.41667-1.51667,1.95-3.45.86667-2.86667,2.83333-4.85,5.9-5.95,2.03333-.73333,3.7-.98333,5-.75h4.65"/><path class="cls-18" d="m37.45,41.5c-1.06667,1.03333-1.73333,2.4-2,4.1-.6,4.03333-1.7,6.56667-3.3,7.6-.76666.46667-2.01666.73333-3.75.8-1.76666.1-3.11667-.08333-4.05-.55-.66667-.36666-.98333-1.33333-.95-2.9.03333-1.56667-.15-2.45-.55-2.65l-4.8.3-5.15.4c-.86667-.3-1.71667-.98334-2.55-2.05-.8-1.03333-1.16667-1.85-1.1-2.45,1.03333-4.26667,1.43333-7.05,1.2-8.35-1.56667-3.66667-2.2-6.06667-1.9-7.2.16667-.7.61667-1.38333,1.35-2.05l1-.85c-.76667,3.93333.26667,5.83333,3.1,5.7,1.53333-.06667,3.21667-.41667,5.05-1.05,1.6-.56667,2.66667-.8,3.2-.7,1.93333.4,2.56667,1.25,1.9,2.55-.43333,1-.68333,2.1-.75,3.3-.1,1.56667.26667,2.5,1.1,2.8,3.1,1.1,5.25-.46667,6.45-4.7.7-2.36666,2.38333-3.94999,5.05-4.74999l3.8-.5h4.75v12.5l-5.6-.35c-.46667.2-.96667.55-1.5,1.05"/><path class="cls-38" d="m55.07496,31.02307c0-1.26703.48999-1.90204,1.47412-1.90204.26392,0,.43994.01001.5249.03003l.39697.12598c.63403.33002.94995.737.94995,1.22101.09009,1.29803.41711,2.20001.98108,2.703.51404.51001,1.49402.76404,2.94202.76404.34998,0,.646-.01001.89001-.03003.44495,0,1.11804-.07202,2.02197-.216.98303-.12,1.47595-.94598,1.47595-2.479,0-.67401-.17603-1.47296-.5249-2.396-.33008-.88068-.86633-1.66937-1.56396-2.29999-.7301-.66302-1.48413-1.15399-2.26807-1.474-.81909-.33398-1.51294-.54999-2.08203-.64398-.64893-.10004-1.53003-.14905-2.64307-.14905h-.94287c-.10498.02002-.26001.03003-.46509.03003h-.45703c-2.69495,0-4.71997.58002-6.0719,1.74402-1.33801,1.15295-2.17603,2.90198-2.51599,5.24799l-.09497,1.258v7.60699l.06592.914c.16992,1.11122.45188,2.24069,1.01733,3.22228,1.46995,2.55177,4.80047,3.12139,6.34489,5.71228.36711.61586.62343,1.29042.94677,1.93036.22755.45037.52928.91781,1.00958,1.07247.63744.20526,1.33557-.25624,1.62944-.85802.64933-1.32971.12604-2.80891,1.0619-4.11084.50561-.70339,1.11272-.8004,1.89185-.97051.99733-.21775,1.94081-.70399,2.78025-1.27305,1.11804-.77399,1.90295-1.84796,2.35706-3.22095.14478-.29938.23828-.62079.27698-.95105.01001-.08496.052-.33997.12695-.76398.02002-.14502.0321-.34003.0321-.58398,0-.98303-.3291-1.70801-.98315-2.17804-.63391-.44897-1.6969-.67297-3.18994-.67297-1.11206,0-2.02295.21497-2.73193.64398-.69409.41998-1.04004.91003-1.04004,1.47504,0,1.16797-.12109,1.98297-.36597,2.44696-.24512.45404-.53198.71204-.86108.77203-.33997.06-.58496.08997-.73499.08997-.78796,0-1.31897-.513-1.5929-1.53601l-.09814-.58398v-9.22198s.03003-.495.03003-.49501Z"/><path class="cls-6" d="m56.5-63.1l23,105.95L19.25-67.85l37.25,4.75"/><path class="cls-8" d="m47.9-63.1l31.6,105.95L19.25-67.85l28.65,4.75"/><path class="cls-23" d="m79.5,42.85L-9.35-64.9l28.6-2.95,60.25,110.7"/><path class="cls-29" d="m-9.35-64.9L79.5,42.85-36.55-54.85l27.2-10.05"/><path class="cls-3" d="m-36.55-54.85L79.5,42.85-65.45-33.6l28.9-21.25"/><path class="cls-11" d="m-36.55-54.85L79.5,42.85-60.15-38l23.6-16.85"/><path class="cls-19" d="m229.3,22.35l2.2-.05,1.45,1.25c.89999.9,1.48334,1.85,1.75,2.85.3,1.1-.06668,3-1.10001,5.7l-.75,2.35c-.16666.76667.10001,2.6.8,5.5l.39999,2.35c.09999,1.1-.38335,2.36667-1.45,3.8-1.09999,1.4-2.28334,2.31667-3.55,2.75l-6.10001-.3-3.05-.45.05,1.2c.00002,2.16666-.7,3.58333-2.10001,4.25-1.23334.63334-2.93335.9-5.10001.8-2.06667-.1-3.61667-.48333-4.64999-1.15-2.06667-1.26667-3.48334-4.25-4.25-8.95-.23334-1.63333-.88335-2.78333-1.95-3.45l-5.05.3c-.56667.06667-1.06667-.11667-1.5-.55-.40001-.33333-.60002-.81667-.60001-1.45v-12.49999c-.00002-1.33333.66666-2,2-2h4.75l-.10001.05c2.06667-.13334,4.06667.23333,6,1.1,2.53334,1.2,4.16667,3.06667,4.89999,5.6.53334,1.96667,1.2,3.11666,2,3.45l1.55-.05.10001-.5c0-1.06667-.20001-2.03333-.60001-2.9-.26666-.5-.39999-1.06667-.39999-1.7,0-.53333.11667-1.01667.35001-1.45.56667-1.16667,1.68335-1.9,3.35001-2.2.90001-.2,2.21667.01667,3.95.65,1.83333.63333,3.43333.98333,4.8,1.05l.75-.2c.5-.63333.60001-1.68333.3-3.15-.16666-.86667.11667-1.53333.85001-2"/><path class="cls-18" d="m230.45001,24l1,.8c.7.7,1.13333,1.4,1.3,2.1.3,1.1-.33334,3.5-1.89999,7.2-.23334,1.3.18333,4.08333,1.25,8.35.03333.6-.34999,1.41667-1.14999,2.45-.79999,1.06667-1.63333,1.75-2.5,2.05l-5.2-.4-4.8-.3c-.36667.2-.53333,1.08333-.5,2.65.03334,1.56667-.29999,2.51666-1,2.85-.90001.46667-2.25.66666-4.05.6-1.73332-.1-2.98332-.38334-3.75-.85-1.59999-.96667-2.7-3.48333-3.3-7.55-.23334-1.7-.88333-3.06667-1.95-4.1l-1.5-1.1-5.64999.35-3.85001-1.1,3.85001-11.4h4.75l3.8.5c2.66667.83333,4.35001,2.43333,5.05,4.8,1.23332,4.23333,3.38333,5.78333,6.45,4.65.83334-.3,1.2-1.23333,1.10001-2.8-.06668-1.23333-.31668-2.31667-.75-3.25-.60001-1.33333.03334-2.18333,1.89999-2.55.53333-.1,1.60001.13333,3.2.7,1.86665.63334,3.55.98333,5.05,1.05,2.83334.13333,3.88333-1.76666,3.14999-5.7"/><path class="cls-19" d="m44.55,26.3c1.33333,0,2,.66667,2,2v12.5c0,.56667-.2,1.05-.6,1.45-.43333.36666-.93333.55-1.5.55l-5.05-.35c-1.06667.8-1.71667,1.95-1.95,3.45-.7,4.66667-2.11667,7.66667-4.25,9-1.03333.63334-2.58333,1-4.65,1.1-2.16667.1-3.86667-.16667-5.1-.8-1.4-.66666-2.1-2.08333-2.1-4.25l.05-1.15-3,.4-6.15.3c-1.26667-.43333-2.43333-1.35-3.5-2.75-1.1-1.4-1.6-2.66667-1.5-3.8l.4-2.3c.7-2.93333.98333-4.78333.85-5.55l-.8-2.3c-1-2.66667-1.36667-4.58333-1.1-5.75.4-1.56667,1.46667-2.91667,3.2-4.05.73333-.5,1.46667-.5,2.2,0s1.01667,1.18333.85,2.05c-.3,1.43333-.2,2.48333.3,3.15l.75.2,4.8-1.1c1.76667-.6,3.08333-.81667,3.95-.65,1.66667.36667,2.78333,1.1,3.35,2.2l.35,1.5c0,.6-.11667,1.15-.35,1.65-.4.9-.6,1.86666-.6,2.9l.05.55c.66667.2,1.2.2,1.6,0,.76667-.36667,1.41667-1.51667,1.95-3.45.86667-2.86667,2.83333-4.85,5.9-5.95,2.03333-.73333,3.7-.98333,5-.75h4.65"/><path class="cls-18" d="m37.45,41.5c-1.06667,1.03333-1.73333,2.4-2,4.1-.6,4.03333-1.7,6.56667-3.3,7.6-.76666.46667-2.01666.73333-3.75.8-1.76666.1-3.11667-.08333-4.05-.55-.66667-.36666-.98333-1.33333-.95-2.9.03333-1.56667-.15-2.45-.55-2.65l-4.8.3-5.15.4c-.86667-.3-1.71667-.98334-2.55-2.05-.8-1.03333-1.16667-1.85-1.1-2.45,1.03333-4.26667,1.43333-7.05,1.2-8.35-1.56667-3.66667-2.2-6.06667-1.9-7.2.16667-.7.61667-1.38333,1.35-2.05l1-.85c-.76667,3.93333.26667,5.83333,3.1,5.7,1.53333-.06667,3.21667-.41667,5.05-1.05,1.6-.56667,2.66667-.8,3.2-.7,1.93333.4,2.56667,1.25,1.9,2.55-.43333,1-.68333,2.1-.75,3.3-.1,1.56667.26667,2.5,1.1,2.8,3.1,1.1,5.25-.46667,6.45-4.7.7-2.36666,2.38333-3.94999,5.05-4.74999l3.8-.5h4.75v12.5l-5.6-.35c-.46667.2-.96667.55-1.5,1.05"/><path class="cls-7" d="m56.5-63.1l23,105.95L19.25-67.85"/><path class="cls-22" d="m47.9-63.1l31.6,105.95L19.25-67.85"/><path class="cls-21" d="m19.25-67.85l60.25,110.7"/><path class="cls-5" d="m79.5,42.85L-9.35-64.9"/><path class="cls-27" d="m-9.35-64.9L79.5,42.85-36.55-54.85"/><path class="cls-25" d="m-36.55-54.85L79.5,42.85-65.45-33.6"/><path class="cls-9" d="m-36.55-54.85L79.5,42.85-60.15-38"/><path class="cls-19" d="m229.3,22.35l2.2-.05,1.45,1.25c.89999.9,1.48334,1.85,1.75,2.85.3,1.1-.06668,3-1.10001,5.7l-.75,2.35c-.16666.76667.10001,2.6.8,5.5l.39999,2.35c.09999,1.1-.38335,2.36667-1.45,3.8-1.09999,1.4-2.28334,2.31667-3.55,2.75l-6.10001-.3-3.05-.45.05,1.2c.00002,2.16666-.7,3.58333-2.10001,4.25-1.23334.63334-2.93335.9-5.10001.8-2.06667-.1-3.61667-.48333-4.64999-1.15-2.06667-1.26667-3.48334-4.25-4.25-8.95-.23334-1.63333-.88335-2.78333-1.95-3.45l-5.05.3c-.56667.06667-1.06667-.11667-1.5-.55-.40001-.33333-.60002-.81667-.60001-1.45v-12.49999c-.00002-1.33333.66666-2,2-2h4.75l-.10001.05c2.06667-.13334,4.06667.23333,6,1.1,2.53334,1.2,4.16667,3.06667,4.89999,5.6.53334,1.96667,1.2,3.11666,2,3.45l1.55-.05.10001-.5c0-1.06667-.20001-2.03333-.60001-2.9-.26666-.5-.39999-1.06667-.39999-1.7,0-.53333.11667-1.01667.35001-1.45.56667-1.16667,1.68335-1.9,3.35001-2.2.90001-.2,2.21667.01667,3.95.65,1.83333.63333,3.43333.98333,4.8,1.05l.75-.2c.5-.63333.60001-1.68333.3-3.15-.16666-.86667.11667-1.53333.85001-2"/><path class="cls-19" d="m44.55,26.3c1.33333,0,2,.66667,2,2v12.5c0,.56667-.2,1.05-.6,1.45-.43333.36666-.93333.55-1.5.55l-5.05-.35c-1.06667.8-1.71667,1.95-1.95,3.45-.7,4.66667-2.11667,7.66667-4.25,9-1.03333.63334-2.58333,1-4.65,1.1-2.16667.1-3.86667-.16667-5.1-.8-1.4-.66666-2.1-2.08333-2.1-4.25l.05-1.15-3,.4-6.15.3c-1.26667-.43333-2.43333-1.35-3.5-2.75-1.1-1.4-1.6-2.66667-1.5-3.8l.4-2.3c.7-2.93333.98333-4.78333.85-5.55l-.8-2.3c-1-2.66667-1.36667-4.58333-1.1-5.75.4-1.56667,1.46667-2.91667,3.2-4.05.73333-.5,1.46667-.5,2.2,0s1.01667,1.18333.85,2.05c-.3,1.43333-.2,2.48333.3,3.15l.75.2,4.8-1.1c1.76667-.6,3.08333-.81667,3.95-.65,1.66667.36667,2.78333,1.1,3.35,2.2l.35,1.5c0,.6-.11667,1.15-.35,1.65-.4.9-.6,1.86666-.6,2.9l.05.55c.66667.2,1.2.2,1.6,0,.76667-.36667,1.41667-1.51667,1.95-3.45.86667-2.86667,2.83333-4.85,5.9-5.95,2.03333-.73333,3.7-.98333,5-.75h4.65"/><path class="cls-17" d="m56.5-63.1l23,105.95L19.25-67.85l37.25,4.75"/><path class="cls-10" d="m47.9-63.1l31.6,105.95L19.25-67.85l28.65,4.75"/><path class="cls-14" d="m79.5,42.85L-9.35-64.9l28.6-2.95,60.25,110.7"/><path class="cls-2" d="m-9.35-64.9L79.5,42.85-36.55-54.85l27.2-10.05"/><path class="cls-16" d="m-36.55-54.85L79.5,42.85-65.45-33.6l28.9-21.25"/><path class="cls-20" d="m-36.55-54.85L79.5,42.85-60.15-38l23.6-16.85"/><path class="cls-45" d="m86.17603,24.68307c-.62134-.18164-1.25854-.30383-1.90308-.36499l-.33496-.00104c-.36499,0-.73596.03003-1.10999.09003-.39001.06-.83801.19501-1.34802.40497-.58899.24005-.96606.44-1.13.60504-.22498.22498-.33606.42896-.33606.61298v5.70599c-.82886.104-1.50586.15802-2.02991.15802-.55896,0-1.08997-.03302-1.59302-.09802v-5.42798c0-.23401-.11401-.47998-.33801-.73401-.29504-.34479-.67383-.60791-1.09998-.76398l-.46497-.18701c-.16003-.03998-.4231-.10004-.79297-.17999-.26404-.065-.68311-.09601-1.25708-.09601-.59998,0-1.25488.08197-1.96289.24597-.69409.20001-1.19507.41504-1.50415.64502-.34985.255-.52588.54199-.52588.86102v18.76996c0,.54887.22486.98678.67361,1.31579,1.62795,1.19358,4.31438,1.00713,6.06746.25118.40902-.17638.82369-.41322,1.03212-.80688.17506-.33064.17829-.72208.17746-1.0962-.00443-1.99503-.00886-3.99005-.01328-5.98508-.00028-.12624.00433-.26565.09029-.35811.08625-.09277.22564-.10727.35209-.11457.85627-.0494,1.71603-.0383,2.57074.03319.14389.01203.2977.02987.40728.12389.14874.12762.16535.34787.17095.54377.10438,3.65731.20877,7.31462.31318,10.97298.02059.72133.17022,2.01818,1.09677,2.10403,1.21324.11241,1.4291-1.91641,1.8305-2.68064.61158-1.16438,1.44802-2.14972,2.77209-2.48576.55845-.14013,1.10311-.39518,1.49337-.81849.77165-.83699.47733-2.21777.47733-3.25957v-16.41954c0-.33398-.14404-.633-.43408-.89197-.27991-.22003-.72791-.44501-1.34692-.67401l.00004.00002Z"/><path class="cls-45" d="m191.33801,40.93905l-5.922-.06,7.328-10.85602c.73401-1.07397,1.10193-1.97498,1.10193-2.70398,0-.45398-.13196-.90302-.39697-1.34698-.30005-.49402-.57397-.84204-.82397-1.04102-.32007-.22498-.61597-.33801-.89001-.33801h-15.08704c-.31897,0-.61597.15204-.88989.45703-.31506.34399-.57202.81696-.77209,1.41602l-.12.45697c-.02002.08502-.03003.26801-.03003.55298,0,.51904.09302.98901.2771,1.40802.13501.39001.30591.70703.51587.95099.17505.20502.37012.30701.58411.30701h6.65601l-8.09399,11.47003c-.63403.87897-.9491,1.63397-.9491,2.26801,0,.38995.09009.77899.27612,1.16797l.30786.48602c.31506.42499.60815.71198.88306.862.27405.18396.53198.27698.771.27698h7.4369c1.10875.2407,1.89493,1.12537,2.65392,1.9034.49664.50911,1.04025,1.0056,1.71112,1.24179,1.65192.5816,2.49213-.83683,2.92822-2.18206.22345-.68928.50819-.96313,1.21783-.96313.72803,0,1.26001-.56,1.59302-1.68402l.12207-.52496c.03992-.29004.05786-.57703.05786-.86102,0-.86902-.21289-1.53101-.64185-1.98999-.45007-.45001-1.05103-.67401-1.80505-.67401v-.00002Z"/><path class="cls-45" d="m171.12305,26.52505c-.88306-1.00397-2.1001-1.69-3.646-2.05896-1.59814-.34406-3.02002-.51605-4.26807-.51605-1.28796,0-2.71899.18402-4.29102.55304-1.57202.35999-2.83997,1.05396-3.80298,2.08197-.93799,1.02802-1.40796,2.62402-1.40796,4.78503l-.06604,1.28699v5.89301l.06604,1.31598c0,2.14198.47997,3.72796,1.43793,4.75591,1.33987,1.43777,3.31888,1.57853,4.71446,2.87944,1.06432.99211,1.44012,2.37438,1.22485,3.78689-.13171.86422-.39413,1.71022-.43942,2.58325-.02888.55697.03786,1.13679.31956,1.61813.46413.79303,1.32167,1.00626,2.07089.49161.57597-.39564.86475-1.10794.93069-1.80359s-.05878-1.39302-.14551-2.08636c-.19528-1.5611.01233-2.95963,1.03188-4.20072.37775-.45982,1.08102-1.16468,1.73705-1.09176.72652.08076.5239,1.29275.61513,1.81294.10706.61039.65695,1.20645,1.27942.83482.5643-.3369.54224-1.27574.6804-1.83193.28642-1.15294,1.27234-1.97151,1.97623-2.92855,1.36371-1.85419,1.6434-4.22141,1.67381-6.45847.02509-1.84564.07573-3.72667-.00739-5.57062l-.05896-1.28699c-.21008-2.23602-.75098-3.85205-1.625-4.84503l-.00002.00002Zm-9.53906,3.83398c0-1.00397.53296-1.50397,1.59595-1.50397,1.10303,0,1.65405.5,1.65405,1.50397v10.49005c0,.99799-.55103,1.49597-1.65405,1.49597-1.06299,0-1.59595-.49799-1.59595-1.49597,0,0,0-10.49005,0-10.49005Z"/><path class="cls-45" d="m147.90601,35.66806l-.39795-.21802.64392-.216c.48999-.19495,1.09399-.60498,1.81299-1.22894.65393-.58405,1.01001-1.21906,1.06995-1.90204l.06006-.79297c.026-.28003.04395-.48401.06006-.61401.02393-.164.03589-.40002.03589-.70502,0-1.86597-.51001-3.23596-1.53296-4.10901-1.00806-.85901-2.63696-1.28998-4.88306-1.28998l-11.43091.00098c-.51404,0-.91504.11304-1.19995.33801-.30908.25-.46204.55499-.46204.91999v14.56575c0,1.81573.06271,3.62686.0692,5.44056.00247.69083.07797,1.40594.42261,2.00471.5014.87117,1.63071,1.57374,2.6541,1.47003.3521-.03568.69856-.17937.94691-.4315.17525-.17792.29904-.40483.49232-.56297.2773-.2269.79984-.31803,1.10561-.08063.51578.40042.5218,1.10348.64531,1.68628.07312.345.21077.6981.49232.91046.23489.17716.54643.23344.83812.19501,2.43542-.32087.36693-4.37202,3.00179-4.37568.95354-.00132,1.90709,0,2.86063,0l1.03906-.06c1.64697-.21503,2.90503-.72699,3.77295-1.53601.8291-.79797,1.32007-1.67596,1.46997-2.63397.12402-.93402.18701-1.59802.18701-1.99304,0-1.10297-.28796-2.013-.86194-2.73199-.59399-.724-1.56409-1.40698-2.91199-2.04999h.00002Zm-7.97498-4.823c0-.17999.00989-.34198.02991-.48602,0-.26495.01099-.47998.03101-.64496h.73999c.51001,0,.92004.04999,1.229.14996.25.09003.48303.276.70312.55499l.24792.42603c.09998.31.14905.54602.14905.71002,0,.47998-.2041.87799-.61401,1.19196-.42896.31-.98999.46503-1.68311.46503h-.73486l-.06812-.89301c-.02344-.24329-.03345-.48761-.02991-.73199v-.74201Zm2.94397,10.31104c-.36401.27399-.64893.42694-.854.45599-.28906.03998-.64795.05896-1.078.05896h-1.07202v-1.77301l.0011-2.05896h.94995c1.40295,0,2.17896.315,2.32788.95001.16504.67297.24805,1.06195.24805,1.16699,0,.51996-.17395.91998-.52295,1.20001v.00002Z"/><path class="cls-45" d="m94.05901,24.27308c-.375,0-.743.03-1.108.09l-1.101.277c-.72.31-1.157.544-1.317.703-.25.22-.375.454-.375.703v19.475c0,.215.135.41.404.584.23.18.607.354,1.131.523.524.17,1.055.283,1.594.338h.674c.145.02.37.03.674.03l1.258-.188c.773-.195,1.357-.42,1.752-.674.304-.21.457-.453.457-.732v-19.356c0-.254-.153-.518-.457-.793-.35-.254-.788-.47-1.317-.644-.36936-.10464-.73936-.20698-1.11-.307-.119-.02-.383-.029-.792-.029h-.367Z"/><path class="cls-45" d="m122.914,23.95008c-1.358,0-2.49.141-3.398.425-.899.28-1.557.577-1.971.891-.444.35-.708.727-.793,1.131l-1.781,7.18-1.873-7.42c-.095-.36-.33-.666-.703-.92-.34-.235-.828-.469-1.467-.703-.49-.16-1.124-.295-1.903-.405-.703-.06-1.542-.09-2.515-.09-.6,0-1.428.082-2.487.247-1.028.184-1.896.552-2.605,1.101-.739.59-1.107,1.252-1.107,1.99v17.76c0,.29.174.544.523.764.314.2.97.394,1.963.584.364.065.835.098,1.414.098.65453-.01873,1.3039-.12192,1.932-.307.504-.16.914-.355,1.228-.584.305-.25.457-.507.457-.772v-11.68l2.883,11.223c.16.554.475.994.95,1.319.473.35,1.036.583,1.685.703.629.125,1.14.187,1.535.187h.367c1.023,0,1.85-.194,2.484-.584.604-.359.984-.799,1.14-1.318l3.12-11.53v11.868c0,.23.156.454.465.674.27.21.668.393,1.197.552.554.16.943.253,1.162.278.33.04.585.06.77.06.49,0,.92-.02,1.289-.06l1.19-.307c.52901-.21.909-.425,1.138-.644.17825-.17892.27792-.42144.27699-.674v-17.848c.00932-.56207-.22562-1.10054-.644-1.476-.42-.36-1.186-.75-2.299-1.168-1.098-.365-2.305-.545-3.623-.545,0,0,.00002,0,.00002,0Z"/><path class="cls-45" d="m55.07496,31.69611c0-1.26703.48999-1.90204,1.47412-1.90204.26392,0,.43994.01001.5249.03003l.39697.12598c.63403.33002.94995.737.94995,1.22101.09009,1.29803.41711,2.20001.98108,2.703.51404.51001,1.49402.76404,2.94202.76404.34998,0,.646-.01001.89001-.03003.44495,0,1.11804-.07202,2.02197-.216.98303-.12,1.47595-.94598,1.47595-2.479,0-.67401-.17603-1.47296-.5249-2.396-.33008-.88068-.86633-1.66937-1.56396-2.29999-.7301-.66302-1.48413-1.15399-2.26807-1.474-.81909-.33398-1.51294-.54999-2.08203-.64398-.64893-.10004-1.53003-.14905-2.64307-.14905h-.94287c-.10498.02002-.26001.03003-.46509.03003h-.45703c-2.69495,0-4.71997.58002-6.0719,1.74402-1.33801,1.15295-2.17603,2.90198-2.51599,5.24799l-.09497,1.258v7.60699l.06592.914c.16992,1.11122.45188,2.24069,1.01733,3.22228,1.46995,2.55177,3.88506,3.04145,5.42949,5.63234.36711.61586.54465,1.85644,1.25806,2.80645.32988.43928.9601.92059,1.45161.80645.73497-.17067.89968-1.07564,1.19355-1.67742.64933-1.32971.72401-2.51964,1.65986-3.82157.50561-.70339,1.11272-.8004,1.89185-.97051.99733-.21775,1.94081-.70399,2.78025-1.27305,1.11804-.77399,1.90295-1.84796,2.35706-3.22095.14478-.29938.23828-.62079.27698-.95105.01001-.08496.052-.33997.12695-.76398.02002-.14502.0321-.34003.0321-.58398,0-.98303-.3291-1.70801-.98315-2.17804-.63391-.44897-1.6969-.67297-3.18994-.67297-1.11206,0-2.02295.21497-2.73193.64398-.69409.41998-1.04004.91003-1.04004,1.47504,0,1.16797-.12109,1.98297-.36597,2.44696-.24512.45404-.53198.71204-.86108.77203-.33997.06-.58496.08997-.73499.08997-.78796,0-1.31897-.513-1.5929-1.53601l-.09814-.58398v-9.22198s.03003-.495.03004-.495Z"/><path class="cls-46" d="m86.17603,24.68307c-.62134-.18164-1.25854-.30383-1.90308-.36499l-.33496-.00104c-.36499,0-.73596.03003-1.10999.09003-.39001.06-.83801.19501-1.34802.40497-.58899.24005-.96606.44-1.13.60504-.22498.22498-.33606.42896-.33606.61298v5.70599c-.82886.104-1.50586.15802-2.02991.15802-.55896,0-1.08997-.03302-1.59302-.09802v-5.42798c0-.23401-.11401-.47998-.33801-.73401-.29504-.34479-.67383-.60791-1.09998-.76398l-.46497-.18701c-.16003-.03998-.4231-.10004-.79297-.17999-.26404-.065-.68311-.09601-1.25708-.09601-.59998,0-1.25488.08197-1.96289.24597-.69409.20001-1.19507.41504-1.50415.64502-.34985.255-.52588.54199-.52588.86102v18.76996c0,.54887.22486.98678.67361,1.31579,1.62795,1.19358,4.31438,1.00713,6.06746.25118.40902-.17638.82369-.41322,1.03212-.80688.17506-.33064.17829-.72208.17746-1.0962-.00443-1.99503-.00886-3.99005-.01328-5.98508-.00028-.12624.00433-.26565.09029-.35811.08625-.09277.22564-.10727.35209-.11457.85627-.0494,1.71603-.0383,2.57074.03319.14389.01203.2977.02987.40728.12389.14874.12762.16535.34787.17095.54377.10438,3.65731.20877,7.31462.31318,10.97298.02059.72133.17022,2.01818,1.09677,2.10403,1.21324.11241,1.4291-1.91641,1.8305-2.68064.61158-1.16438,1.44802-2.14972,2.77209-2.48576.55845-.14013,1.10311-.39518,1.49337-.81849.77165-.83699.47733-2.21777.47733-3.25957v-16.41954c0-.33398-.14404-.633-.43408-.89197-.27991-.22003-.72791-.44501-1.34692-.67401l.00004.00002Z"/><path class="cls-46" d="m191.33801,40.93905l-5.922-.06,7.328-10.85602c.73401-1.07397,1.10193-1.97498,1.10193-2.70398,0-.45398-.13196-.90302-.39697-1.34698-.30005-.49402-.57397-.84204-.82397-1.04102-.32007-.22498-.61597-.33801-.89001-.33801h-15.08704c-.31897,0-.61597.15204-.88989.45703-.31506.34399-.57202.81696-.77209,1.41602l-.12.45697c-.02002.08502-.03003.26801-.03003.55298,0,.51904.09302.98901.2771,1.40802.13501.39001.30591.70703.51587.95099.17505.20502.37012.30701.58411.30701h6.65601l-8.09399,11.47003c-.63403.87897-.9491,1.63397-.9491,2.26801,0,.38995.09009.77899.27612,1.16797l.30786.48602c.31506.42499.60815.71198.88306.862.27405.18396.53198.27698.771.27698h7.4369c1.10875.2407,1.89493,1.12537,2.65392,1.9034.49664.50911,1.04025,1.0056,1.71112,1.24179,1.65192.5816,2.49213-.83683,2.92822-2.18206.22345-.68928.50819-.96313,1.21783-.96313.72803,0,1.26001-.56,1.59302-1.68402l.12207-.52496c.03992-.29004.05786-.57703.05786-.86102,0-.86902-.21289-1.53101-.64185-1.98999-.45007-.45001-1.05103-.67401-1.80505-.67401v-.00002Z"/><path class="cls-46" d="m171.12305,26.52505c-.88306-1.00397-2.1001-1.69-3.646-2.05896-1.59814-.34406-3.02002-.51605-4.26807-.51605-1.28796,0-2.71899.18402-4.29102.55304-1.57202.35999-2.83997,1.05396-3.80298,2.08197-.93799,1.02802-1.40796,2.62402-1.40796,4.78503l-.06604,1.28699v5.89301l.06604,1.31598c0,2.14198.47997,3.72796,1.43793,4.75591,1.33987,1.43777,3.31888,1.57853,4.71446,2.87944,1.06432.99211,1.44012,2.37438,1.22485,3.78689-.13171.86422-.39413,1.71022-.43942,2.58325-.02888.55697.03786,1.13679.31956,1.61813.46413.79303,1.32167,1.00626,2.07089.49161.57597-.39564.86475-1.10794.93069-1.80359s-.05878-1.39302-.14551-2.08636c-.19528-1.5611.01233-2.95963,1.03188-4.20072.37775-.45982,1.08102-1.16468,1.73705-1.09176.72652.08076.5239,1.29275.61513,1.81294.10706.61039.65695,1.20645,1.27942.83482.5643-.3369.54224-1.27574.6804-1.83193.28642-1.15294,1.27234-1.97151,1.97623-2.92855,1.36371-1.85419,1.6434-4.22141,1.67381-6.45847.02509-1.84564.07573-3.72667-.00739-5.57062l-.05896-1.28699c-.21008-2.23602-.75098-3.85205-1.625-4.84503l-.00002.00002Zm-9.53906,3.83398c0-1.00397.53296-1.50397,1.59595-1.50397,1.10303,0,1.65405.5,1.65405,1.50397v10.49005c0,.99799-.55103,1.49597-1.65405,1.49597-1.06299,0-1.59595-.49799-1.59595-1.49597,0,0,0-10.49005,0-10.49005Z"/><path class="cls-46" d="m147.90601,35.66806l-.39795-.21802.64392-.216c.48999-.19495,1.09399-.60498,1.81299-1.22894.65393-.58405,1.01001-1.21906,1.06995-1.90204l.06006-.79297c.026-.28003.04395-.48401.06006-.61401.02393-.164.03589-.40002.03589-.70502,0-1.86597-.51001-3.23596-1.53296-4.10901-1.00806-.85901-2.63696-1.28998-4.88306-1.28998l-11.43091.00098c-.51404,0-.91504.11304-1.19995.33801-.30908.25-.46204.55499-.46204.91999v14.56575c0,1.81573.06271,3.62686.0692,5.44056.00247.69083.07797,1.40594.42261,2.00471.5014.87117,1.63071,1.57374,2.6541,1.47003.3521-.03568.69856-.17937.94691-.4315.17525-.17792.29904-.40483.49232-.56297.2773-.2269.79984-.31803,1.10561-.08063.51578.40042.5218,1.10348.64531,1.68628.07312.345.21077.6981.49232.91046.23489.17716.54643.23344.83812.19501,2.43542-.32087.36693-4.37202,3.00179-4.37568.95354-.00132,1.90709,0,2.86063,0l1.03906-.06c1.64697-.21503,2.90503-.72699,3.77295-1.53601.8291-.79797,1.32007-1.67596,1.46997-2.63397.12402-.93402.18701-1.59802.18701-1.99304,0-1.10297-.28796-2.013-.86194-2.73199-.59399-.724-1.56409-1.40698-2.91199-2.04999h.00002Zm-7.97498-4.823c0-.17999.00989-.34198.02991-.48602,0-.26495.01099-.47998.03101-.64496h.73999c.51001,0,.92004.04999,1.229.14996.25.09003.48303.276.70312.55499l.24792.42603c.09998.31.14905.54602.14905.71002,0,.47998-.2041.87799-.61401,1.19196-.42896.31-.98999.46503-1.68311.46503h-.73486l-.06812-.89301c-.02344-.24329-.03345-.48761-.02991-.73199v-.74201Zm2.94397,10.31104c-.36401.27399-.64893.42694-.854.45599-.28906.03998-.64795.05896-1.078.05896h-1.07202v-1.77301l.0011-2.05896h.94995c1.40295,0,2.17896.315,2.32788.95001.16504.67297.24805,1.06195.24805,1.16699,0,.51996-.17395.91998-.52295,1.20001v.00002Z"/><path class="cls-46" d="m94.05901,24.27308c-.375,0-.743.03-1.108.09l-1.101.277c-.72.31-1.157.544-1.317.703-.25.22-.375.454-.375.703v19.475c0,.215.135.41.404.584.23.18.607.354,1.131.523.524.17,1.055.283,1.594.338h.674c.145.02.37.03.674.03l1.258-.188c.773-.195,1.357-.42,1.752-.674.304-.21.457-.453.457-.732v-19.356c0-.254-.153-.518-.457-.793-.35-.254-.788-.47-1.317-.644-.36936-.10464-.73936-.20698-1.11-.307-.119-.02-.383-.029-.792-.029h-.367Z"/><path class="cls-46" d="m122.914,23.95008c-1.358,0-2.49.141-3.398.425-.899.28-1.557.577-1.971.891-.444.35-.708.727-.793,1.131l-1.781,7.18-1.873-7.42c-.095-.36-.33-.666-.703-.92-.34-.235-.828-.469-1.467-.703-.49-.16-1.124-.295-1.903-.405-.703-.06-1.542-.09-2.515-.09-.6,0-1.428.082-2.487.247-1.028.184-1.896.552-2.605,1.101-.739.59-1.107,1.252-1.107,1.99v17.76c0,.29.174.544.523.764.314.2.97.394,1.963.584.364.065.835.098,1.414.098.65453-.01873,1.3039-.12192,1.932-.307.504-.16.914-.355,1.228-.584.305-.25.457-.507.457-.772v-11.68l2.883,11.223c.16.554.475.994.95,1.319.473.35,1.036.583,1.685.703.629.125,1.14.187,1.535.187h.367c1.023,0,1.85-.194,2.484-.584.604-.359.984-.799,1.14-1.318l3.12-11.53v11.868c0,.23.156.454.465.674.27.21.668.393,1.197.552.554.16.943.253,1.162.278.33.04.585.06.77.06.49,0,.92-.02,1.289-.06l1.19-.307c.52901-.21.909-.425,1.138-.644.17825-.17892.27792-.42144.27699-.674v-17.848c.00932-.56207-.22562-1.10054-.644-1.476-.42-.36-1.186-.75-2.299-1.168-1.098-.365-2.305-.545-3.623-.545,0,0,.00002,0,.00002,0Z"/><path class="cls-46" d="m55.07496,31.69611c0-1.26703.48999-1.90204,1.47412-1.90204.26392,0,.43994.01001.5249.03003l.39697.12598c.63403.33002.94995.737.94995,1.22101.09009,1.29803.41711,2.20001.98108,2.703.51404.51001,1.49402.76404,2.94202.76404.34998,0,.646-.01001.89001-.03003.44495,0,1.11804-.07202,2.02197-.216.98303-.12,1.47595-.94598,1.47595-2.479,0-.67401-.17603-1.47296-.5249-2.396-.33008-.88068-.86633-1.66937-1.56396-2.29999-.7301-.66302-1.48413-1.15399-2.26807-1.474-.81909-.33398-1.51294-.54999-2.08203-.64398-.64893-.10004-1.53003-.14905-2.64307-.14905h-.94287c-.10498.02002-.26001.03003-.46509.03003h-.45703c-2.69495,0-4.71997.58002-6.0719,1.74402-1.33801,1.15295-2.17603,2.90198-2.51599,5.24799l-.09497,1.258v7.60699l.06592.914c.16992,1.11122.45188,2.24069,1.01733,3.22228,1.46995,2.55177,3.88506,3.04145,5.42949,5.63234.36711.61586.54465,1.85644,1.25806,2.80645.32988.43928.9601.92059,1.45161.80645.73497-.17067.89968-1.07564,1.19355-1.67742.64933-1.32971.72401-2.51964,1.65986-3.82157.50561-.70339,1.11272-.8004,1.89185-.97051.99733-.21775,1.94081-.70399,2.78025-1.27305,1.11804-.77399,1.90295-1.84796,2.35706-3.22095.14478-.29938.23828-.62079.27698-.95105.01001-.08496.052-.33997.12695-.76398.02002-.14502.0321-.34003.0321-.58398,0-.98303-.3291-1.70801-.98315-2.17804-.63391-.44897-1.6969-.67297-3.18994-.67297-1.11206,0-2.02295.21497-2.73193.64398-.69409.41998-1.04004.91003-1.04004,1.47504,0,1.16797-.12109,1.98297-.36597,2.44696-.24512.45404-.53198.71204-.86108.77203-.33997.06-.58496.08997-.73499.08997-.78796,0-1.31897-.513-1.5929-1.53601l-.09814-.58398v-9.22198s.03003-.495.03004-.495Z"/><path class="cls-44" d="m86.17603,26.03171c-.62134-.18164-1.25854-.30383-1.90308-.36499l-.33496-.00104c-.36499,0-.73596.03003-1.10999.09003-.39001.06-.83801.19501-1.34802.40497-.58899.24005-.96606.44-1.13.60504-.22498.22498-.33606.42896-.33606.61298v5.70599c-.82886.104-1.50586.15802-2.02991.15802-.55896,0-1.08997-.03302-1.59302-.09802v-5.42798c0-.23401-.11401-.47998-.33801-.73401-.29504-.34479-.67383-.60791-1.09998-.76398l-.46497-.18701c-.16003-.03998-.4231-.10004-.79297-.17999-.26404-.065-.68311-.09601-1.25708-.09601-.59998,0-1.25488.08197-1.96289.24597-.69409.20001-1.19507.41504-1.50415.64502-.34985.255-.52588.54199-.52588.86102v18.76996c0,.54887.22486.98678.67361,1.31579,1.62795,1.19358,4.31438,1.00713,6.06746.25118.40902-.17638.82369-.41322,1.03212-.80688.17506-.33064.17829-.72208.17746-1.0962-.00443-1.99503-.00886-3.99005-.01328-5.98508-.00028-.12624.00433-.26565.09029-.35811.08625-.09277.22564-.10727.35209-.11457.85627-.0494,1.71603-.0383,2.57074.03319.14389.01203.2977.02987.40728.12389.14874.12762.16535.34787.17095.54377.10438,3.65731.20877,7.31462.31318,10.97298.02059.72133.17022,2.01818,1.09677,2.10403,1.21324.11241,1.4291-1.91641,1.8305-2.68064.61158-1.16438,1.44802-2.14972,2.77209-2.48576.55845-.14013,1.10311-.39518,1.49337-.81849.77165-.83699.47733-2.21777.47733-3.25957v-16.41954c0-.33398-.14404-.633-.43408-.89197-.27991-.22003-.72791-.44501-1.34692-.67401l.00004.00003Z"/><path class="cls-40" d="m191.33801,42.28769l-5.922-.06,7.328-10.85602c.73401-1.07397,1.10193-1.97498,1.10193-2.70398,0-.45398-.13196-.90302-.39697-1.34698-.30005-.49402-.57397-.84204-.82397-1.04102-.32007-.22498-.61597-.33801-.89001-.33801h-15.08704c-.31897,0-.61597.15204-.88989.45703-.31506.34399-.57202.81696-.77209,1.41602l-.12.45697c-.02002.08502-.03003.26801-.03003.55298,0,.51904.09302.98901.2771,1.40802.13501.39001.30591.70703.51587.95099.17505.20502.37012.30701.58411.30701h6.65601l-8.09399,11.47003c-.63403.87897-.9491,1.63397-.9491,2.26801,0,.38995.09009.77899.27612,1.16797l.30786.48602c.31506.42499.60815.71198.88306.862.27405.18396.53198.27698.771.27698h7.4369c1.10875.2407,1.89493,1.12537,2.65392,1.9034.49664.50911,1.04025,1.0056,1.71112,1.24179,1.65192.5816,2.49213-.83683,2.92822-2.18206.22345-.68928.50819-.96313,1.21783-.96313.72803,0,1.26001-.56,1.59302-1.68402l.12207-.52496c.03992-.29004.05786-.57703.05786-.86102,0-.86902-.21289-1.53101-.64185-1.98999-.45007-.45001-1.05103-.67401-1.80505-.67401v-.00002Z"/><path class="cls-42" d="m171.12305,27.87369c-.88306-1.00397-2.1001-1.69-3.646-2.05896-1.59814-.34406-3.02002-.51605-4.26807-.51605-1.28796,0-2.71899.18402-4.29102.55304-1.57202.35999-2.83997,1.05396-3.80298,2.08197-.93799,1.02802-1.40796,2.62402-1.40796,4.78503l-.06604,1.28699v5.89301l.06604,1.31598c0,2.14198.47997,3.72796,1.43793,4.75591,1.33987,1.43777,3.31888,1.57853,4.71446,2.87944,1.06432.99211,1.44012,2.37438,1.22485,3.78689-.13171.86422-.39413,1.71022-.43942,2.58325-.02888.55697.03786,1.13679.31956,1.61813.46413.79303,1.32167,1.00626,2.07089.49161.57597-.39564.86475-1.10794.93069-1.80359s-.05878-1.39302-.14551-2.08636c-.19528-1.5611.01233-2.95963,1.03188-4.20072.37775-.45982,1.08102-1.16468,1.73705-1.09176.72652.08076.5239,1.29275.61513,1.81294.10706.61039.65695,1.20645,1.27942.83482.5643-.3369.54224-1.27574.6804-1.83193.28642-1.15294,1.27234-1.97151,1.97623-2.92855,1.36371-1.85419,1.6434-4.22141,1.67381-6.45847.02509-1.84564.07573-3.72667-.00739-5.57062l-.05896-1.28699c-.21008-2.23602-.75098-3.85205-1.625-4.84503l-.00002.00002Zm-9.53906,3.83398c0-1.00397.53296-1.50397,1.59595-1.50397,1.10303,0,1.65405.5,1.65405,1.50397v10.49005c0,.99799-.55103,1.49597-1.65405,1.49597-1.06299,0-1.59595-.49799-1.59595-1.49597v-10.49005Z"/><path class="cls-43" d="m147.90601,37.01669l-.39795-.21802.64392-.216c.48999-.19495,1.09399-.60498,1.81299-1.22894.65393-.58405,1.01001-1.21906,1.06995-1.90204l.06006-.79297c.026-.28003.04395-.48401.06006-.61401.02393-.164.03589-.40002.03589-.70502,0-1.86597-.51001-3.23596-1.53296-4.10901-1.00806-.85901-2.63696-1.28998-4.88306-1.28998l-11.43091.00098c-.51404,0-.91504.11304-1.19995.33801-.30908.25-.46204.55499-.46204.91999v14.56575c0,1.81573.06271,3.62686.0692,5.44056.00247.69083.07797,1.40594.42261,2.00471.5014.87117,1.63071,1.57374,2.6541,1.47003.3521-.03568.69856-.17937.94691-.4315.17525-.17792.29904-.40483.49232-.56297.2773-.2269.79984-.31803,1.10561-.08063.51578.40042.5218,1.10348.64531,1.68628.07312.345.21077.6981.49232.91046.23489.17716.54643.23344.83812.19501,2.43542-.32087.36693-4.37202,3.00179-4.37568.95354-.00132,1.90709,0,2.86063,0l1.03906-.06c1.64697-.21503,2.90503-.72699,3.77295-1.53601.8291-.79797,1.32007-1.67596,1.46997-2.63397.12402-.93402.18701-1.59802.18701-1.99304,0-1.10297-.28796-2.013-.86194-2.73199-.59399-.724-1.56409-1.40698-2.91199-2.04999l.00002-.00002Zm-7.97498-4.823c0-.17999.00989-.34198.02991-.48602,0-.26495.01099-.47998.03101-.64496h.73999c.51001,0,.92004.04999,1.229.14996.25.09003.48303.276.70312.55499l.24792.42603c.09998.31.14905.54602.14905.71002,0,.47998-.2041.87799-.61401,1.19196-.42896.31-.98999.46503-1.68311.46503h-.73486l-.06812-.89301c-.02344-.24329-.03345-.48761-.02991-.73199v-.74201Zm2.94397,10.31104c-.36401.27399-.64893.42694-.854.45599-.28906.03998-.64795.05896-1.078.05896h-1.07202v-1.77301l.0011-2.05896h.94995c1.40295,0,2.17896.315,2.32788.95001.16504.67297.24805,1.06195.24805,1.16699,0,.51996-.17395.91998-.52295,1.20001v.00002Z"/><path class="cls-39" d="m94.05901,25.62172c-.375,0-.743.03-1.108.09l-1.101.277c-.72.31-1.157.544-1.317.703-.25.22-.375.454-.375.703v19.475c0,.215.135.41.404.584.23.18.607.354,1.131.523.524.17,1.055.283,1.594.338h.674c.145.02.37.03.674.03l1.258-.188c.773-.195,1.357-.42,1.752-.674.304-.21.457-.453.457-.732v-19.356c0-.254-.153-.518-.457-.793-.35-.254-.788-.47-1.317-.644-.36936-.10464-.73936-.20698-1.11-.307-.119-.02-.383-.029-.792-.029,0,0-.367,0-.367,0Z"/><path class="cls-37" d="m102.78493,48.47768c-.99333-.19-1.647-.38467-1.961-.584-.34933-.22-.524-.47467-.524-.764v-17.759c0-.73867.36933-1.40233,1.108-1.991.70866-.54933,1.577-.91633,2.605-1.101,1.058-.16467,1.88667-.247,2.486-.247.97334,0,1.81166.03,2.515.09.77867.10933,1.41266.244,1.902.404.63867.23466,1.128.46933,1.468.704.374.25467.60833.56133.703.92l1.872,7.42,1.782-7.18c.08466-.404.34933-.78067.794-1.13.41399-.31467,1.07034-.61167,1.969-.891.908-.28467,2.041-.427,3.399-.427,1.31734,0,2.52533.18233,3.624.547,1.11333.41867,1.87933.808,2.298,1.168.42932.39867.644.89.644,1.474v17.85c0,.254-.09233.47833-.27699.673-.23.22-.60933.43467-1.138.644l-1.19.307c-.37.04-.79933.06-1.288.06-.18467,0-.44167-.02-.771-.06-.22-.02467-.607-.117-1.161-.277-.52934-.16-.92867-.34467-1.198-.554-.30933-.22-.464-.44467-.464-.674v-11.867l-3.122,11.53c-.15467.51933-.534.95867-1.138,1.318-.634.38934-1.46266.584-2.486.584h-.367c-.394,0-.90567-.06234-1.535-.187-.64867-.12-1.21-.35467-1.684-.704-.474-.32467-.79099-.764-.951-1.318l-2.882-11.223v11.68c0,.26467-.15234.52166-.457.771-.31466.23-.72401.42467-1.228.584-.38467.11467-.75401.19466-1.108.24-.36933.04467-.644.067-.824.067-.57867,0-1.05034-.03233-1.415-.097,0,0-.00002,0-.00002,0Z"/><path class="cls-41" d="m55.07496,32.68771c0-1.26703.48999-1.90204,1.47412-1.90204.26392,0,.43994.01001.5249.03003l.39697.12598c.63403.33002.94995.737.94995,1.22101.09009,1.29803.41711,2.20001.98108,2.703.51404.51001,1.49402.76404,2.94202.76404.34998,0,.646-.01001.89001-.03003.44495,0,1.11804-.07202,2.02197-.216.98303-.12,1.47595-.94598,1.47595-2.479,0-.67401-.17603-1.47296-.5249-2.396-.33008-.88068-.86633-1.66937-1.56396-2.29999-.7301-.66302-1.48413-1.15399-2.26807-1.474-.81909-.33398-1.51294-.54999-2.08203-.64398-.64893-.10004-1.53003-.14905-2.64307-.14905h-.94287c-.10498.02002-.26001.03003-.46509.03003h-.45703c-2.69495,0-4.71997.58002-6.0719,1.74402-1.33801,1.15295-2.17603,2.90198-2.51599,5.24799l-.09497,1.258v7.60699l.06592.914c.16989,1.11105.45179,2.24034,1.01706,3.22182.80309,1.39441,2.02045,2.26655,3.28013,3.19593,2.47221,1.82397,2.00447,2.61429,2.75447,4.17881.33475.69829,1.09298,1.37034,2.11987,1.27547,2.28335-.21096,1.85239-3.53179,2.83838-4.9035.50561-.70339,1.11272-.8004,1.89185-.97051.99733-.21775,1.94081-.70399,2.78025-1.27305,1.11804-.77399,1.90295-1.84796,2.35706-3.22095.14478-.29938.23828-.62079.27698-.95105.01001-.08496.052-.33997.12695-.76398.02002-.14502.0321-.34003.0321-.58398,0-.98303-.3291-1.70801-.98315-2.17804-.63391-.44897-1.6969-.67297-3.18994-.67297-1.11206,0-2.02295.21497-2.73193.64398-.69409.41998-1.04004.91003-1.04004,1.47504,0,1.16797-.12109,1.98297-.36597,2.44696-.24512.45404-.53198.71204-.86108.77203-.33997.06-.58496.08997-.73499.08997-.78796,0-1.31897-.513-1.5929-1.53601l-.09814-.58398v-9.22198l.03003-.495v-.00002Z"/><path class="cls-31" d="m86.17603,24.68307c-.62134-.18164-1.25854-.30383-1.90308-.36499l-.33496-.00104c-.36499,0-.73596.03003-1.10999.09003-.39001.06-.83801.19501-1.34802.40497-.58899.24005-.96606.44-1.13.60504-.22498.22498-.33606.42896-.33606.61298v5.70599c-.82886.104-1.50586.15802-2.02991.15802-.55896,0-1.08997-.03302-1.59302-.09802v-5.42798c0-.23401-.11401-.47998-.33801-.73401-.29504-.34479-.67383-.60791-1.09998-.76398l-.46497-.18701c-.16003-.03998-.4231-.10004-.79297-.17999-.26404-.065-.68311-.09601-1.25708-.09601-.59998,0-1.25488.08197-1.96289.24597-.69409.20001-1.19507.41504-1.50415.64502-.34985.255-.52588.54199-.52588.86102v18.76996c0,.54887.22486.98678.67361,1.31579,1.62795,1.19358,4.31438,1.00713,6.06746.25118.40902-.17638.82369-.41322,1.03212-.80688.17506-.33064.17829-.72208.17746-1.0962-.00443-1.99503-.00886-3.99005-.01328-5.98508-.00028-.12624.00433-.26565.09029-.35811.08625-.09277.22564-.10727.35209-.11457.85627-.0494,1.71603-.0383,2.57074.03319.14389.01203.2977.02987.40728.12389.14874.12762.16535.34787.17095.54377.10438,3.65731.20877,7.31462.31318,10.97298.02059.72133.17022,2.01818,1.09677,2.10403,1.21324.11241,1.4291-1.91641,1.8305-2.68064.61158-1.16438,1.44802-2.14972,2.77209-2.48576.55845-.14013,1.10311-.39518,1.49337-.81849.77165-.83699.47733-2.21777.47733-3.25957v-16.41954c0-.33398-.14404-.633-.43408-.89197-.27991-.22003-.72791-.44501-1.34692-.67401l.00004.00002Z"/><path class="cls-33" d="m191.33801,40.93905l-5.922-.06,7.328-10.85602c.73401-1.07397,1.10193-1.97498,1.10193-2.70398,0-.45398-.13196-.90302-.39697-1.34698-.30005-.49402-.57397-.84204-.82397-1.04102-.32007-.22498-.61597-.33801-.89001-.33801h-15.08704c-.31897,0-.61597.15204-.88989.45703-.31506.34399-.57202.81696-.77209,1.41602l-.12.45697c-.02002.08502-.03003.26801-.03003.55298,0,.51904.09302.98901.2771,1.40802.13501.39001.30591.70703.51587.95099.17505.20502.37012.30701.58411.30701h6.65601l-8.09399,11.47003c-.63403.87897-.9491,1.63397-.9491,2.26801,0,.38995.09009.77899.27612,1.16797l.30786.48602c.31506.42499.60815.71198.88306.862.27405.18396.53198.27698.771.27698h7.4369c1.10875.2407,1.89493,1.12537,2.65392,1.9034.49664.50911,1.04025,1.0056,1.71112,1.24179,1.65192.5816,2.49213-.83683,2.92822-2.18206.22345-.68928.50819-.96313,1.21783-.96313.72803,0,1.26001-.56,1.59302-1.68402l.12207-.52496c.03992-.29004.05786-.57703.05786-.86102,0-.86902-.21289-1.53101-.64185-1.98999-.45007-.45001-1.05103-.67401-1.80505-.67401v-.00002Z"/><path class="cls-32" d="m171.12305,26.52505c-.88306-1.00397-2.1001-1.69-3.646-2.05896-1.59814-.34406-3.02002-.51605-4.26807-.51605-1.28796,0-2.71899.18402-4.29102.55304-1.57202.35999-2.83997,1.05396-3.80298,2.08197-.93799,1.02802-1.40796,2.62402-1.40796,4.78503l-.06604,1.28699v5.89301l.06604,1.31598c0,2.14198.47997,3.72796,1.43793,4.75591,1.33987,1.43777,3.31888,1.57853,4.71446,2.87944,1.06432.99211,1.44012,2.37438,1.22485,3.78689-.13171.86422-.39413,1.71022-.43942,2.58325-.02888.55697.03786,1.13679.31956,1.61813.46413.79303,1.32167,1.00626,2.07089.49161.57597-.39564.86475-1.10794.93069-1.80359s-.05878-1.39302-.14551-2.08636c-.19528-1.5611.01233-2.95963,1.03188-4.20072.37775-.45982,1.08102-1.16468,1.73705-1.09176.72652.08076.5239,1.29275.61513,1.81294.10706.61039.65695,1.20645,1.27942.83482.5643-.3369.54224-1.27574.6804-1.83193.28642-1.15294,1.27234-1.97151,1.97623-2.92855,1.36371-1.85419,1.6434-4.22141,1.67381-6.45847.02509-1.84564.07573-3.72667-.00739-5.57062l-.05896-1.28699c-.21008-2.23602-.75098-3.85205-1.625-4.84503l-.00002.00002Zm-9.53906,3.83398c0-1.00397.53296-1.50397,1.59595-1.50397,1.10303,0,1.65405.5,1.65405,1.50397v10.49005c0,.99799-.55103,1.49597-1.65405,1.49597-1.06299,0-1.59595-.49799-1.59595-1.49597,0,0,0-10.49005,0-10.49005Z"/><path class="cls-36" d="m147.90601,35.66806l-.39795-.21802.64392-.216c.48999-.19495,1.09399-.60498,1.81299-1.22894.65393-.58405,1.01001-1.21906,1.06995-1.90204l.06006-.79297c.026-.28003.04395-.48401.06006-.61401.02393-.164.03589-.40002.03589-.70502,0-1.86597-.51001-3.23596-1.53296-4.10901-1.00806-.85901-2.63696-1.28998-4.88306-1.28998l-11.43091.00098c-.51404,0-.91504.11304-1.19995.33801-.30908.25-.46204.55499-.46204.91999v14.56575c0,1.81573.06271,3.62686.0692,5.44056.00247.69083.07797,1.40594.42261,2.00471.5014.87117,1.63071,1.57374,2.6541,1.47003.3521-.03568.69856-.17937.94691-.4315.17525-.17792.29904-.40483.49232-.56297.2773-.2269.79984-.31803,1.10561-.08063.51578.40042.5218,1.10348.64531,1.68628.07312.345.21077.6981.49232.91046.23489.17716.54643.23344.83812.19501,2.43542-.32087.36693-4.37202,3.00179-4.37568.95354-.00132,1.90709,0,2.86063,0l1.03906-.06c1.64697-.21503,2.90503-.72699,3.77295-1.53601.8291-.79797,1.32007-1.67596,1.46997-2.63397.12402-.93402.18701-1.59802.18701-1.99304,0-1.10297-.28796-2.013-.86194-2.73199-.59399-.724-1.56409-1.40698-2.91199-2.04999h.00002Zm-7.97498-4.823c0-.17999.00989-.34198.02991-.48602,0-.26495.01099-.47998.03101-.64496h.73999c.51001,0,.92004.04999,1.229.14996.25.09003.48303.276.70312.55499l.24792.42603c.09998.31.14905.54602.14905.71002,0,.47998-.2041.87799-.61401,1.19196-.42896.31-.98999.46503-1.68311.46503h-.73486l-.06812-.89301c-.02344-.24329-.03345-.48761-.02991-.73199v-.74201Zm2.94397,10.31104c-.36401.27399-.64893.42694-.854.45599-.28906.03998-.64795.05896-1.078.05896h-1.07202v-1.77301l.0011-2.05896h.94995c1.40295,0,2.17896.315,2.32788.95001.16504.67297.24805,1.06195.24805,1.16699,0,.51996-.17395.91998-.52295,1.20001v.00002Z"/><path class="cls-34" d="m94.05901,24.27308c-.375,0-.743.03-1.108.09l-1.101.277c-.72.31-1.157.544-1.317.703-.25.22-.375.454-.375.703v19.475c0,.215.135.41.404.584.23.18.607.354,1.131.523.524.17,1.055.283,1.594.338h.674c.145.02.37.03.674.03l1.258-.188c.773-.195,1.357-.42,1.752-.674.304-.21.457-.453.457-.732v-19.356c0-.254-.153-.518-.457-.793-.35-.254-.788-.47-1.317-.644-.36936-.10464-.73936-.20698-1.11-.307-.119-.02-.383-.029-.792-.029h-.367Z"/><path class="cls-30" d="m122.914,24.62308c-1.358,0-2.49.141-3.398.425-.899.28-1.557.577-1.971.891-.444.35-.708.727-.793,1.131l-1.781,7.18-1.873-7.42c-.095-.36-.33-.666-.703-.92-.34-.235-.828-.469-1.467-.703-.49-.16-1.124-.295-1.903-.405-.703-.06-1.542-.09-2.515-.09-.6,0-1.428.082-2.487.247-1.028.184-1.896.552-2.605,1.101-.739.59-1.107,1.252-1.107,1.99v17.76c0,.29.174.544.523.764.314.2.97.394,1.963.584.364.065.835.098,1.414.098.65453-.01873,1.3039-.12192,1.932-.307.504-.16.914-.355,1.228-.584.305-.25.457-.507.457-.772v-11.68l2.883,11.223c.16.554.475.994.95,1.319.473.35,1.036.583,1.685.703.629.125,1.14.187,1.535.187h.367c1.023,0,1.85-.194,2.484-.584.604-.359.984-.799,1.14-1.318l3.12-11.53v11.868c0,.23.156.454.465.674.27.21.668.393,1.197.552.554.16.943.253,1.162.278.33.04.585.06.77.06.49,0,.92-.02,1.289-.06l1.19-.307c.52901-.21.909-.425,1.138-.644.17825-.17892.27792-.42144.27699-.674v-17.848c.00932-.56207-.22562-1.10054-.644-1.476-.42-.36-1.186-.75-2.299-1.168-1.098-.365-2.305-.545-3.623-.545,0,0,.00002,0,.00002,0Z"/><path class="cls-35" d="m55.07496,31.69611c0-1.26703.48999-1.90204,1.47412-1.90204.26392,0,.43994.01001.5249.03003l.39697.12598c.63403.33002.94995.737.94995,1.22101.09009,1.29803.41711,2.20001.98108,2.703.51404.51001,1.49402.76404,2.94202.76404.34998,0,.646-.01001.89001-.03003.44495,0,1.11804-.07202,2.02197-.216.98303-.12,1.47595-.94598,1.47595-2.479,0-.67401-.17603-1.47296-.5249-2.396-.33008-.88068-.86633-1.66937-1.56396-2.29999-.7301-.66302-1.48413-1.15399-2.26807-1.474-.81909-.33398-1.51294-.54999-2.08203-.64398-.64893-.10004-1.53003-.14905-2.64307-.14905h-.94287c-.10498.02002-.26001.03003-.46509.03003h-.45703c-2.69495,0-4.71997.58002-6.0719,1.74402-1.33801,1.15295-2.17603,2.90198-2.51599,5.24799l-.09497,1.258v7.60699l.06592.914c.16989,1.11105.45179,2.24034,1.01706,3.22182.80309,1.39441,2.02045,2.26655,3.28013,3.19593,2.47221,1.82397,2.00447,2.61429,2.75447,4.17881.33475.69829,1.09298,1.37034,2.11987,1.27547,2.28335-.21096,1.85239-3.53179,2.83838-4.9035.50561-.70339,1.11272-.8004,1.89185-.97051.99733-.21775,1.94081-.70399,2.78025-1.27305,1.11804-.77399,1.90295-1.84796,2.35706-3.22095.14478-.29938.23828-.62079.27698-.95105.01001-.08496.052-.33997.12695-.76398.02002-.14502.0321-.34003.0321-.58398,0-.98303-.3291-1.70801-.98315-2.17804-.63391-.44897-1.6969-.67297-3.18994-.67297-1.11206,0-2.02295.21497-2.73193.64398-.69409.41998-1.04004.91003-1.04004,1.47504,0,1.16797-.12109,1.98297-.36597,2.44696-.24512.45404-.53198.71204-.86108.77203-.33997.06-.58496.08997-.73499.08997-.78796,0-1.31897-.513-1.5929-1.53601l-.09814-.58398v-9.22198s.03003-.495.03003-.49501Z"/><path class="cls-15" d="m230.45001,24l1,.8c.7.7,1.13333,1.4,1.3,2.1.3,1.1-.33334,3.5-1.89999,7.2-.23334,1.3.18333,4.08333,1.25,8.35.03333.6-.34999,1.41667-1.14999,2.45-.79999,1.06667-1.63333,1.75-2.5,2.05l-5.2-.4-4.8-.3c-.36667.2-.53333,1.08333-.5,2.65.03334,1.56667-.29999,2.51666-1,2.85-.90001.46667-2.25.66666-4.05.6-1.73332-.1-2.98332-.38334-3.75-.85-1.59999-.96667-2.7-3.48333-3.3-7.55-.23334-1.7-.88333-3.06667-1.95-4.1l-1.5-1.1-5.64999.35-3.85001-1.1,3.85001-11.4h4.75l3.8.5c2.66667.83333,4.35001,2.43333,5.05,4.8,1.23332,4.23333,3.38333,5.78333,6.45,4.65.83334-.3,1.2-1.23333,1.10001-2.8-.06668-1.23333-.31668-2.31667-.75-3.25-.60001-1.33333.03334-2.18333,1.89999-2.55.53333-.1,1.60001.13333,3.2.7,1.86665.63334,3.55.98333,5.05,1.05,2.83334.13333,3.88333-1.76666,3.14999-5.7"/><path class="cls-15" d="m37.45,41.5c-1.06667,1.03333-1.73333,2.4-2,4.1-.6,4.03333-1.7,6.56667-3.3,7.6-.76666.46667-2.01666.73333-3.75.8-1.76666.1-3.11667-.08333-4.05-.55-.66667-.36666-.98333-1.33333-.95-2.9.03333-1.56667-.15-2.45-.55-2.65l-4.8.3-5.15.4c-.86667-.3-1.71667-.98334-2.55-2.05-.8-1.03333-1.16667-1.85-1.1-2.45,1.03333-4.26667,1.43333-7.05,1.2-8.35-1.56667-3.66667-2.2-6.06667-1.9-7.2.16667-.7.61667-1.38333,1.35-2.05l1-.85c-.76667,3.93333.26667,5.83333,3.1,5.7,1.53333-.06667,3.21667-.41667,5.05-1.05,1.6-.56667,2.66667-.8,3.2-.7,1.93333.4,2.56667,1.25,1.9,2.55-.43333,1-.68333,2.1-.75,3.3-.1,1.56667.26667,2.5,1.1,2.8,3.1,1.1,5.25-.46667,6.45-4.7.7-2.36666,2.38333-3.94999,5.05-4.74999l3.8-.5h4.75v12.5l-5.6-.35c-.46667.2-.96667.55-1.5,1.05"/></svg>