<?xml version="1.0" encoding="UTF-8"?><svg xmlns="http://www.w3.org/2000/svg" xmlns:xlink="http://www.w3.org/1999/xlink" viewBox="0 0 800 78"><defs><style>.cls-1{fill:url(#Dégradé_sans_nom_72);}.cls-1,.cls-2,.cls-3,.cls-4,.cls-5,.cls-6,.cls-7,.cls-8,.cls-9,.cls-10,.cls-11,.cls-12,.cls-13,.cls-14,.cls-15,.cls-16,.cls-17,.cls-18,.cls-19,.cls-20,.cls-21,.cls-22,.cls-23,.cls-24,.cls-25,.cls-26,.cls-27,.cls-28,.cls-29,.cls-30,.cls-31,.cls-32,.cls-33,.cls-34,.cls-35,.cls-36,.cls-37,.cls-38,.cls-39{fill-rule:evenodd;stroke-width:0px;}.cls-2{fill:url(#Dégradé_sans_nom_344-6);}.cls-3{fill:#0f0600;}.cls-4{fill:url(#Dégradé_sans_nom_344-14);}.cls-5{fill:#2c996d;}.cls-6{fill:url(#Dégradé_sans_nom_344-5);}.cls-7{fill:#2f4857;}.cls-8{fill:#1b3600;}.cls-9{fill:#f2f2f2;}.cls-11{fill:url(#Dégradé_sans_nom_344-12);}.cls-12{fill:url(#Dégradé_sans_nom_344-9);}.cls-13{fill:url(#Dégradé_sans_nom_344-4);}.cls-14{fill:url(#Dégradé_sans_nom_344-2);}.cls-15{fill:#803500;}.cls-16{fill:#d65a00;}.cls-17{fill:#8dffff;}.cls-18{fill:#ffa754;}.cls-19{fill:#571a00;}.cls-20{fill:#ff6b00;}.cls-40{stroke:#657187;}.cls-40,.cls-41{fill:none;stroke-linecap:round;stroke-linejoin:round;}.cls-21{fill:url(#Dégradé_sans_nom_344-11);}.cls-22{fill:#f06500;}.cls-23{fill:url(#Dégradé_sans_nom_344-3);}.cls-24{fill:#ba4e00;}.cls-25{fill:#fff;}.cls-26{fill:url(#Dégradé_sans_nom_344-7);}.cls-27{fill:url(#Dégradé_sans_nom_344-10);}.cls-41{stroke:#000;stroke-width:2.5px;}.cls-28{fill:#ff720d;}.cls-29{fill:url(#Dégradé_sans_nom_2637);}.cls-30{fill:url(#Dégradé_sans_nom_344-13);}.cls-31{fill:#b7c1c7;}.cls-32{fill:rgba(255,255,255,.39608);}.cls-33{fill:#ff7b1c;}.cls-34{fill:#e56f00;}.cls-35{fill:url(#Dégradé_sans_nom_344);}.cls-36{fill:url(#Dégradé_sans_nom_344-8);}.cls-37{fill:url(#Dégradé_sans_nom_344-15);}.cls-38{fill:#d45800;}.cls-39{fill:url(#Dégradé_sans_nom_2769);}</style><linearGradient id="Dégradé_sans_nom_2769" x1="-3657.09655" y1="21643.22903" x2="-2395.64665" y2="21643.22903" gradientTransform="translate(-2495.71045 -90.96814) rotate(-90) scale(.03725 .13327)" gradientUnits="userSpaceOnUse"><stop offset="0" stop-color="#ffc" stop-opacity="0"/><stop offset="1" stop-color="#2fa4e5"/></linearGradient><linearGradient id="Dégradé_sans_nom_344" x1="-.05" y1="603.25919" x2="-.05" y2="616.00919" gradientTransform="translate(357.79398 670.48879) scale(1 -1)" gradientUnits="userSpaceOnUse"><stop offset="0" stop-color="#000" stop-opacity="0"/><stop offset=".69832" stop-color="#000"/></linearGradient><linearGradient id="Dégradé_sans_nom_344-2" x1="273.99999" y1="600.25919" x2="273.99999" y2="641.05919" xlink:href="#Dégradé_sans_nom_344"/><linearGradient id="Dégradé_sans_nom_344-3" x1="1223.27636" y1="1673.53335" x2="-342.84155" y2="1673.53335" gradientTransform="translate(-1192.03938 24.66664) rotate(90) scale(.0336 -1) skewX(2.55615)" xlink:href="#Dégradé_sans_nom_344"/><linearGradient id="Dégradé_sans_nom_344-4" x1="202.075" y1="601.00919" x2="202.075" xlink:href="#Dégradé_sans_nom_344"/><linearGradient id="Dégradé_sans_nom_344-5" x1="-250" y1="599.85919" x2="-250" y2="612.50919" xlink:href="#Dégradé_sans_nom_344"/><linearGradient id="Dégradé_sans_nom_344-6" x1="11030.82228" y1="1690.68335" x2="9530.82245" y2="1690.68335" gradientTransform="translate(-1440.68937 -.1115) rotate(90) scale(.0062 -1)" xlink:href="#Dégradé_sans_nom_344"/><linearGradient id="Dégradé_sans_nom_344-7" x1="81.95" y1="602.75919" x2="81.95" y2="637.622" xlink:href="#Dégradé_sans_nom_344"/><linearGradient id="Dégradé_sans_nom_344-8" x1="232.67072" x2="232.67072" y2="634.61398" xlink:href="#Dégradé_sans_nom_344"/><linearGradient id="Dégradé_sans_nom_344-9" x1="-3.56621" y1="603.35919" x2="-3.56621" y2="641.70919" xlink:href="#Dégradé_sans_nom_344"/><linearGradient id="Dégradé_sans_nom_344-10" x1="5388.20408" y1="1610.73646" x2="3519.42008" y2="1610.73646" gradientTransform="translate(-1107.13935 .38749) rotate(90) scale(.0125 -1) skewX(6.39049)" xlink:href="#Dégradé_sans_nom_344"/><linearGradient id="Dégradé_sans_nom_344-11" x1="162.675" y1="614.80919" x2="162.675" y2="637.60919" xlink:href="#Dégradé_sans_nom_344"/><linearGradient id="Dégradé_sans_nom_344-12" x1="160.525" y1="603.55919" x2="160.525" y2="616.30919" xlink:href="#Dégradé_sans_nom_344"/><linearGradient id="Dégradé_sans_nom_344-13" x1="-88.92676" y1="603.00919" x2="-88.92676" y2="630.40919" xlink:href="#Dégradé_sans_nom_344"/><linearGradient id="Dégradé_sans_nom_344-14" x1="-67.175" y1="603.75919" x2="-67.175" y2="646.00919" xlink:href="#Dégradé_sans_nom_344"/><linearGradient id="Dégradé_sans_nom_344-15" x1="5366.41067" y1="1692.18337" x2="4504.85126" y2="1692.18337" gradientTransform="translate(-964.03941 5.50135) rotate(90) scale(.011 -1) skewX(8.27589)" xlink:href="#Dégradé_sans_nom_344"/><linearGradient id="Dégradé_sans_nom_2637" x1="1675.34758" y1="133.78619" x2="3601.57713" y2="133.78619" gradientTransform="translate(406.10456 16.38816) rotate(90) scale(.01718 .13327)" gradientUnits="userSpaceOnUse"><stop offset="0" stop-color="#000" stop-opacity="0"/><stop offset="1" stop-color="#000"/></linearGradient><radialGradient id="Dégradé_sans_nom_72" cx="13960.98047" cy="2284.95252" fx="13960.98047" fy="2284.95252" r="820.01961" gradientTransform="translate(-378.59166 160.76665) scale(.07366 -.05896)" gradientUnits="userSpaceOnUse"><stop offset="0" stop-color="#fff"/><stop offset="1" stop-color="#fff" stop-opacity="0"/></radialGradient></defs><g id="Halloween_16"><g id="sprite0"><g id="use1742"><g id="shape0"><path id="path1745" class="cls-5" d="m899.19397-1.7326v80.05H-60.82814V-1.7326h960.02211"/></g></g></g><g id="sprite1"><g id="use1758"><g id="shape2"><path id="path1761" class="cls-39" d="m887.323,45.2552H-109.81193V-1.7326h997.13493v46.9878"/></g></g></g><g id="use1720"><g id="sprite7"><g id="use1871"><g id="sprite8"><g id="use1874"><g id="sprite9"><g id="use1879"><g id="shape7"><path id="path1882" class="cls-35" d="m414.74398,67.2296h-83.4l.15-.2c1.73333-1.83333,3.58333-3.53333,5.55-5.1,6.33333-4.96667,12.83333-7.45,19.5-7.45,6.66667,0,12.73333,1.3,18.2,3.9,2.7,1.3,4.75,2.6,6.15,3.9l3-3.9c2.86667-2.6,6.48333-3.9,10.85-3.9,4.36666,0,10.15,3.4,17.35,10.2l2.65,2.55m-86.1,0h-27.9l1.85-1.9c4.6-3.76667,9.08333-5.65,13.45-5.65s7.93333,1.61667,10.7,4.85l1.9,2.7"/><path id="path1884" class="cls-14" d="m624.59396,35.1296c1.03336-.16667,2.36667.15,4,.95l3.65002,1.95c0-.73333-.26666-1.81667-.80002-3.25-.46664-1.23333-.64999-2.06667-.54999-2.5.20001-.7.6333-.96667,1.29999-.8l1.39999,3.4c-.13333-2.13333.51669-3.95,1.95001-5.45.96667,2.4,1.48334,4.16667,1.54999,5.3,2.80002-2.43333,4.68335-3.53333,5.65002-3.3.16666,1.63333-.61667,3.45-2.35001,5.45,1-.43333,2.61667-.8,4.85001-1.1.13333,1-.38336,2.03333-1.55002,3.1l-2.69998,2.55,2.75.05,2.29999,1.25c-.56668-.06667-1.68335.13333-3.35001.6l-3.35001.1c.73334.33333,1.53336,1.28333,2.40002,2.85.79999,1.46667,1.21664,2.61667,1.25,3.45-1.13333.16667-2.26669-.23333-3.40002-1.2-1.06665-.83333-1.81665-1.83333-2.25-3,.46667,2.36667.33334,4.06667-.39999,5.1-.70001-.7-1.33331-1.53333-1.89999-2.5l-.35001,1.35c-.66669,2.23333-1.06665,5.85-1.19998,10.85l.89999,1c.33334.56667.68332.9,1.04999,1,.79999.2,2.01666.01667,3.64999-.55l.45001.1.45001-1.15,2.5-3,.04999,4.65c2.63333-.9,4.20001-1.7,4.70001-2.4-.66666,2.46667-.98334,3.85-.95001,4.15.69998-.73333,1.41666-1.21667,2.14999-1.45l.10001,2.45.29999.1.40002.15c.56665-.4,1.14999-1.23333,1.75-2.5l1.04999,3.25c-.03333-.4.51669-.83333,1.64999-1.3,1.13333-.5,1.85001-.6,2.14999-.3.30002.3.26669,1.28333-.09998,2.95h.09998c.36667-.66667.98334-.93333,1.85001-.8v1.05l1.05002.05,9.19998.9,8.39999,1.55-65.44998-1.4-11.90001.7-11.75-.5c1.63333-.03333,3.44998-.41667,5.45-1.15l5.15001-2.25c1.5-.6,3.25-.91667,5.25-.95l5.34999.05c-.26665-1.4.40001-2.21667,2-2.45.86667-.13333,2.16666-.15,3.89999-.05-.23331-.06667-.04999-.5.55002-1.3l1.19998-1.45c.66666-.6,1.78336-1.28333,3.35001-2.05.63333-.33333,1.23334-.5,1.80002-.5-.5-1-.71667-1.83333-.65002-2.5.76669.33333,1.58334,1.15,2.45001,2.45l.20001-3.65.84998,1.6.55002,1.45c.06665-.56667.5-1.1,1.29999-1.6l2.14999-1.35c-.29999.8-.49997,2.16667-.59998,4.1.53333-.63333,1.53333-1.2,3-1.7.43332-3.3,1.03333-5.78333,1.79999-7.45l.60001-1.7-2.14999,2.2c-.73334-.66667-.56668-2.11667.5-4.35l-2.25,2.45c-.66666.6-1.18332.68333-1.55002.25-.33334-.43333-.34998-1-.04999-1.7.23334-.56667.66669-1.25,1.29999-2.05.76666-.93333,1.36667-1.41667,1.80002-1.45-1.43335.1-2.75003-.18333-3.95001-.85.56668-.4,1.71667-.56667,3.45001-.5-.93335-.06667-2.10001-.75-3.5-2.05-1.46667-1.36667-2.10001-2.5-1.90002-3.4"/><path id="path1886" class="cls-23" d="m464.34398,37.9296c.93333-.9,1.86666-1.33333,2.8-1.3.66666-2.26667,1.25-3.43333,1.75-3.5-.6-1.36667-.68333-2.53333-.25-3.5l1.25-2.8.1-3c.2-1.16667.78334-1.96667,1.75-2.4-.23333-2.3.53334-3.95,2.3-4.95,1.56667-.9,3.46667-1.06667,5.7-.5.83333.26667,1.33333.53333,1.5.8l.2,1.2-.15,1.05c.6-.03333.93333.23333,1,.8l.1,1.55.9.8c.1.33333.06667.9-.1,1.7.13333.3.45.63333.95,1,.43333.26667.68333.63333.75,1.1.10001.76667-.11666,2.15-.65,4.15,1.10001-.16667,1.65001.28333,1.65001,1.35l-.15001,2.55c.26668,1.16667.98334,2.08333,2.15001,2.75.33333.56667.48332,1.45.45,2.65-.03334,1.23333.10001,2.13333.39999,2.7.33333.6.55,1.48333.65001,2.65l.7.05c.06665.5.39999,1.05,1,1.65.16667.43333.18333,1.25.05,2.45l.7.15.8.35c.3.23333.51666.68333.64999,1.35.63333,2.13333,1.21666,3.4,1.75,3.8l3.3,1.95,3.55,4.05c1.59999,1.43333,3.76666,2.9,6.5,4.4l6.04999,3.25h-65.89999l5.75-21.9.25-.3c1,.16667,2.35-.73333,4.05-2.7,1.7-1.93333,3.06667-2.83333,4.1-2.7.26666-.96667.81667-1.86667,1.65-2.7"/><path id="path1888" class="cls-13" d="m617.99399,69.4796l-35.50002-.65,1.7-2.2c3.63333-3.63333,7.63333-5.45,12-5.45s11.01668,2.41667,19.95001,7.25l1.85001,1.05m-44.00002-6.2c1.70001,1.83333,3.13333,3.66667,4.3,5.5l-48.39999-.85.79999-.9c1.76668-1.86667,3.65001-3.56667,5.65001-5.1,6.39999-4.96667,12.93332-7.45,19.59999-7.45,6.66666,0,12.68333,2.93333,18.05,8.8m-46.89999,4.6l-25.35001-.4c3.86667-2,7.85001-3,11.95-3,5.86667,0,10.33334,1.13333,13.40001,3.4"/><path id="path1890" class="cls-6" d="m176.39398,69.8296l-137.20001.8c1.46667-1.36667,3.38333-2.71667,5.75-4.05,4.70001-2.73333,9.23334-4.1,13.60001-4.1,7,0,13.11667,1.2,18.35001,3.6l7.85001-4.05c6.53333-2.7,13.13333-4.05,19.79999-4.05,6.66667,0,12.61665,1.61667,17.85001,4.85,2.63333,1.63333,4.58333,3.25,5.84999,4.85l6.90001-3.15c5.46666-2.13333,10.38333-3.2,14.75-3.2,7.00002,0,15.83334,2.83333,26.5,8.5"/><path id="path1892" class="cls-2" d="m277.34398,62.1796c5.46667-2.13333,10.38333-3.2,14.75-3.2,7,0,15.83333,2.83333,26.5,8.5l-137.19999.8c1.46666-1.36667,3.38333-2.71667,5.75-4.05,4.7-2.73333,9.23332-4.1,13.59999-4.1,7,0,13.11667,1.2,18.35001,3.6l7.84999-2.3c6.53333-1.53333,13.13333-2.3,19.8-2.3s12.61668,1.03333,17.85001,3.1c2.63332,1.03333,4.58333,2.06667,5.85,3.1l6.9-3.15"/><path id="path1894" class="cls-26" d="m422.54398,41.9796c.93333,0,1.71667.33333,2.35,1,.66666.63333,1,1.41667,1,2.35,0,.9-.33334,1.68333-1,2.35-.63333.63333-1.41666.95-2.35.95-2.2,0-3.3-1.1-3.3-3.3,0-2.23333,1.1-3.35,3.3-3.35m47.15,24l.95,1.7.05.05h-1.55l.55-1.75m-35.95-27.7c.36667-.33333,1.06667-.56667,2.10001-.7.9-.36667,1.43333-1.03333,1.6-2,.2-1.06667.6-1.8,1.2-2.2,1.43333-.96667,2.83334-.56667,4.2,1.2,1.2,1.5,1.85,3.13333,1.95,4.9.13333-.83333.48334-1.26667,1.05-1.3l.05,1.1c.46667-.33333.95001-.53333,1.45-.6l.1,1.1,1.1-.6v-1.25c-.86667-.16667-1.30001-.7-1.3-1.6,0-1.13333.55-1.7,1.65-1.7s1.65.56667,1.65,1.7c0,.9-.43333,1.43333-1.3,1.6v3c1.66666.8,3.24999,2.35,4.75,4.65.56667.83333,1.16667,2.18333,1.8,4.05.66666,1.23333,1.98334,2.45,3.95,3.65v-4.5c-1.9-.3-2.85-1.4-2.85-3.3,0-.93333.33333-1.71667,1-2.35.63334-.66667,1.41666-1,2.35-1,.9,0,1.68334.33333,2.35001,1,.63332.63333.95,1.41667.95,2.35,0,1.9-.93333,3-2.8,3.3v5.15l1.3.95c1.63333,1.3,2.58334,3.6,2.85,6.9l1.9-1.65-.1,2.8c.5-.46667,1.11666-.75,1.85-.85l-2.35,2.45,1.85-.05c-.7.43333-.98334.91667-.85,1.45l1.7-.25.15,2.05h-60.25c.9-1.16667,1.45-2.35,1.65-3.55l1.15-.05h-.7v-2.45c.83333-.2,1.55,0,2.15.6.06667-1.23333.01666-2.1-.15-2.6.56667-.06667,1.18334.1,1.85.5v-3.85h.65v2l1.4,1.3c.36667-1.1.91667-1.86667,1.65-2.3-.63334-.96667-1.33334-1.7-2.1-2.2l2.7-.1c-.83333-1.46667-1.23333-2.45-1.2-2.95,1.63334.66667,2.53333,1.41667,2.7,2.25-.2-1.36667.03334-2.28333.7-2.75l2.35,2.8c.73333-3.73333,2.2-5.5,4.39999-5.3l.75-3.7c.16666-1.4.81667-2.05,1.95-1.95.1-2.36667.88333-3.41667,2.35-3.15-.23333-.03333-.2-.36667.1-1l.6-1"/><path id="path1896" class="cls-36" d="m592.09398,35.8796c3.13333-.1,4.45,1.36667,3.95,4.4-.26666,1.53333-.83333,3.06667-1.7,4.6l6.39999-1.55c4.3-.33333,6.5,1.26667,6.60001,4.8.10001,3.26667-3.61667,5.08333-11.15001,5.45,2.10001,1.2,3.15001,2.71667,3.15001,4.55,0,1.8-.96667,3.16667-2.90001,4.1,1.93333,1.16667,2.90001,2.63333,2.90001,4.4l-.05.6h-20.85001l-.09999-.85c0-2.16667.95-3.76667,2.84999-4.8-1.89999-.96667-2.84999-2.2-2.84999-3.7,0-2.7,1.46666-4.51667,4.39999-5.45-7.86667-2.06667-10.66667-4.91667-8.39999-8.55,1.56665-2.5,3.95-3.08333,7.14999-1.75,1.60001.66667,3.05,1.58333,4.35001,2.75-.20001-1.46667-.10001-2.93333.3-4.4.83334-2.96667,2.81667-4.5,5.95-4.6"/><path id="path1898" class="cls-12" d="m334.64398,37.6296c1.7-3.56667,4.9-4.53333,9.6-2.9,2.36667.83333,4.56667,2.01667,6.6,3.55-1.26667-1.56667-2.03333-3.15-2.3-4.75-.53333-3.16667,1.68333-4.75,6.65-4.75,4.93333,0,6.93333,1.36667,6,4.1-.43333,1.33333-1.38333,2.68333-2.85,4.05l1.95-1c1.6-.66667,3.11667-1.13333,4.55-1.4,4.63333-.73333,7.68333.96667,9.15,5.1,1.26667,3.63333-.48333,5.63333-5.25,6l-5.1-.15-2.4-.4,2.2,2.1c1.43333,1.7,2.15,3.2,2.15,4.5,0,2.13333-.96667,3.36667-2.9,3.7l1.45,1.7c.96667,1.36667,1.45,2.61667,1.45,3.75,0,1.8-.58333,3.75-1.75,5.85l-8.65.45-9.55-.9c-1.33333-1.5-2-3.61667-2-6.35,0-1.7.38333-3.11667,1.15-4.25l1.15-1.25c-1.93333.63333-2.9-.56667-2.9-3.6,0-1.13333.68333-2.5,2.05-4.1.66667-.8,1.33333-1.48333,2-2.05l-7.65-.5c-4.76667-.96667-6.36667-3.13333-4.8-6.5"/><path id="path1900" class="cls-27" d="m516.09398,55.9296l.75,1.35.39999.7c.20001.66667-.13333,1.21667-1,1.65l-2,1.35v8.35l-21.7.65-1.3-.35.65001-10c-1.33333-.36667-2-.96667-2-1.8,0-.73333,1.36667-2.75,4.09999-6.05,2.76668-3.43333,4.61667-5.15,5.55-5.15l10,.7c.8,0,2.31667,1.76667,4.55,5.3l1.39999,2.3.60001,1"/><path id="path1902" class="cls-21" d="m514.09398,52.6296l2.64999-4.9-1.75.75h-2.34999c.43333-.8,1.09999-1.5,2-2.1-2.66667-.1-5.13333-.9-7.40001-2.4,1-1.2,3.88333-1.73333,8.65001-1.6l-4.55-1.45c-1.70001-.53333-3.05-1.1-4.05-1.7l5.39999-.2,5,.8c-1.53333-2.66667-2.46666-4.65-2.79999-5.95,1.13333.56667,2.08333,1.38333,2.84999,2.45l1.8,2.8.05-5.6c.76666,2.06667,1.21666,3.85,1.34999,5.35.13335-.5.93333-1.56667,2.40001-3.2l2.7-2.8c-.26666,1.36667-1.45,3.45-3.55,6.25l4.15001-.65c1.16667.03333,2.58334.45,4.25,1.25-1.26668,0-2.35001.33333-3.25,1-1.03334.76667-1.86667,1.21667-2.5,1.35,1.56667-.13333,3.21666.18333,4.95.95,1.93333.83333,3.13333,1.88333,3.59999,3.15l-7.45-.9c1.36667.63333,2.48334,1.55,3.35001,2.75.86667,1.2,1.39999,2.2,1.59999,3-1.06667.16667-2.39999-.01667-4-.55-1.3-.43333-2.28334-.91667-2.95-1.45l1.5,2.45c.5,1.26667.70001,2.66667.60001,4.2l-3.65001-2.7c-.96666-.7-1.71666-1.7-2.25-3-.23332,3.26667-1.06667,5.13333-2.5,5.6l-.2-3.75c-.03333-.33333-.66667.5-1.89999,2.5l-.35001.6-1.39999-2.3"/><path id="path1904" class="cls-11" d="m515.84398,54.3296l.25-.15v1.75l-.60001-1,.35001-.6m1,2.95c.76666-.3,1.48332-.41667,2.14999-.35.13333.6-.26666,1.5-1.2,2.7.66667-.36667,1.95-.51667,3.85001-.45.13333.56667-.21666,1.35-1.05,2.35l-1.8,1.6c.40001-.13333,1.60001-.15,3.60001-.05l-2.25,1.45c1.46666.6,2.16666,1.1,2.09999,1.5l-8,.9v-5.95l2-1.35c.86667-.43333,1.20001-.98333,1-1.65l-.39999-.7"/><path id="path1906" class="cls-30" d="m269.29398,43.7796v.1l1.9,1.6c1.63333,1.5,2.83333,2.88333,3.6,4.15,1.83334,2.83333,1.31667,4.66667-1.55,5.5.2.16667.3.38333.3.65,0,.6-.56667,1.01667-1.7,1.25v10.45h-6.05v-10.45c-1.13333-.23333-1.69999-.65-1.7-1.25,0-.26667.1-.48333.3-.65-2.83334-.8-3.28333-2.63333-1.35-5.5,1.3-1.9,3.16666-3.8,5.6-5.7v-.15c0-2.46667.11667-3.7.35-3.7.2,0,.3,1.23333.3,3.7"/><path id="path1908" class="cls-4" d="m280.69398,42.3296c2.16667-2.36667,5.31667-4.71667,9.45-7.05v-1.2c0-6.4.25-9.6.75-9.6.53333,0,.8,3.2.8,9.6v1.1l3.1,1.95c2.73333,1.9,4.78334,3.63333,6.15,5.2,2.13334,2.43333,2.41666,4.28333.85,5.55.73333.36667,1.09999.76667,1.1,1.2,0,.6-.71667,1.13333-2.15,1.6v16.05h-19.75l-.25-15.95c-1.6-.5-2.39999-1.06667-2.39999-1.7,0-.46667.4-.88333,1.2-1.25-1.46667-1.26667-1.08334-3.1,1.15-5.5"/></g></g></g></g><g id="use1876"><g id="sprite10"><g id="use1981"><g id="shape8"><path id="path1984" class="cls-37" d="m770.24396,57.8296c7,0,15.83333,2.83333,26.5,8.5l-137.2.8c1.46667-1.36667,3.38333-2.71667,5.75-4.05,4.7-2.73333,9.23333-4.1,13.6-4.1,7,0,13.11666,1.2,18.35,3.6l7.85-2.3c6.53333-1.53333,13.13333-2.3,19.8-2.3s12.61667,1.03333,17.85,3.1c2.63333,1.03333,4.58333,2.06667,5.85,3.1l6.9-3.15c5.46667-2.13333,10.38333-3.2,14.75-3.2"/></g></g></g></g></g></g></g></g><g id="sprite1-2"><g id="use1758-2"><g id="shape2-2"><path id="path1761-2" class="cls-29" d="m-110.29285,45.1707h997.13456v33.0927H-110.29285v-33.0927"/></g></g></g><g id="sprite2"><g id="shape3"><path class="cls-1" d="m649.71048-21.97468c16.47451,0,30.54981,4.67346,42.22592,14.02038,11.75608,9.41094,17.67411,20.74248,17.75408,33.99462-.07997,13.18812-5.998,24.45564-17.75408,33.80256-11.67611,9.41094-25.75141,14.14842-42.22592,14.21244-16.55448-.06402-30.70976-4.8015-42.46584-14.21244-11.6761-9.34692-17.51416-20.61444-17.51416-33.80256,0-13.25214,5.83806-24.58368,17.51416-33.99462,11.75608-9.34692,25.91136-14.02039,42.46584-14.02038"/></g></g><g id="sprite3"><g id="sprite4"><g id="shape4"><path class="cls-32" d="m666.55249,26.09358c0,4.59884-1.62969,8.5391-4.88905,11.8208-3.28169,3.2817-7.23312,4.92254-11.85428,4.92254s-8.56143-1.64085-11.8208-4.92254c-3.2817-3.28169-4.92254-7.22196-4.92254-11.8208,0-4.62116,1.64085-8.57259,4.92254-11.85428,3.25937-3.28169,7.19964-4.91138,11.8208-4.88905,4.62116-.02232,8.57259,1.60736,11.85428,4.88905,3.25937,3.28169,4.88905,7.23312,4.88905,11.85428"/></g></g><g id="sprite4-2"><g id="shape4-2"><path class="cls-32" d="m662.6189,26.17193c0,3.73503-1.32358,6.93519-3.97074,9.60049-2.66529,2.66529-5.87452,3.99794-9.62768,3.99794s-6.95333-1.33264-9.60049-3.99794c-2.66529-2.66529-3.99794-5.86545-3.99794-9.60049,0-3.75316,1.33264-6.96239,3.99794-9.62768,2.64716-2.66529,5.84732-3.98887,9.60049-3.97074,3.75316-.01813,6.96239,1.30545,9.62768,3.97074,2.64716,2.66529,3.97074,5.87452,3.97074,9.62768"/></g></g><g id="sprite4-3"><g id="shape4-3"><path class="cls-32" d="m659.46444,26.25106c0,2.92265-1.0357,5.42676-3.10708,7.51233-2.08558,2.08558-4.59678,3.12837-7.53362,3.12837s-5.44094-1.04279-7.51233-3.12837c-2.08558-2.08558-3.12837-4.58969-3.12837-7.51233,0-2.93683,1.04279-5.44804,3.12837-7.53362,2.07139-2.08558,4.5755-3.12127,7.51233-3.10708,2.93683-.01419,5.44804,1.02151,7.53362,3.10708,2.07139,2.08558,3.10708,4.59678,3.10708,7.53362"/></g></g></g><g id="sprite5"><g id="shape5"><path class="cls-25" d="m209.23947,17.44412c0-.16667,1.13333-.6,3.4-1.3,2.23333-.7,3.6-1.05,4.1-1.05l2.9.55c.66667,0,1.43333-.55,2.3-1.65.83333-1.1,1.45-1.63333,1.85-1.6l.65.2c.9.03333,2.5-.76667,4.8-2.4l.85.5c.26667,0,.48333-.16667.65-.5.16667-.36667.36667-.53333.6-.5.63333,0,1.5.48333,2.6,1.45.33333,0,.85-.45,1.55-1.35.66667-.93333,1.4-1.38333,2.2-1.35,1.33333.03333,2.15.56667,2.45,1.6,1.66667-1.26667,3.2-1.86667,4.6-1.8.7,0,1.3.4,1.8,1.2l1.1,1.2,2.2,2.6.15-.35,1.2-.15c1.9.06667,2.81667,1.01667,2.75,2.85,1.16667.2,3.93333.98333,8.3,2.35-.33333.43333-1.86667.6-4.6.5l-10.15-.7c-3.5-.16667-5.9-.13333-7.2.1-2.5.43333-5.13333.48333-7.9.15l-7.85-.35-10.05.5-5-.35-.25-.35"/></g></g><g id="sprite6"><g id="shape6"><path class="cls-17" d="m373.08947,20.89411l4.45-1.2-1.5-1.15c-.33333-.2-.5-.5-.5-.9,0-1.33333.75-2,2.25-2,.46667,0,1.18333.18333,2.15.55.33333-.7.85-1.16667,1.55-1.4.93333-.3,1.61666-.66667,2.05-1.1,0-1.26667.13333-2.35.4-3.25l1.05-2.95c1.13333-1.9,2.78333-2.85,4.95-2.85,3.86667,0,5.81667,2.63333,5.85,7.9l-.35,2.25-.15.25,4.15-2.4c.46667,0,.71667.31667.75.95l-.15,1.2.25.15c1.33333,0,1.75-1.35,1.25-4.05,0-.8.41667-2.01667,1.25-3.65.96667-1.9,1.93333-2.85,2.9-2.85.8,0,2.38333,1.58333,4.75,4.75l3.75-2.25.75.05-.25,1.2.85,1.9c-.66667.53333-1,1.2-1,2,3.46667.13333,5.26667.5,5.4,1.1l-.3.85c-.2.36667-.23333.66667-.1.9l5.15,1.9c3,.13333,5.05.4,6.15.8l3.1,1.1c5.6,1.3,8.46667,2.03333,8.6,2.2-.13334.66667-.83333,1-2.1,1-13.46667.03333-20.38334.16667-20.75.4l-2.5.35-23.65.75c-7.4-.43333-13.35-.58333-17.85-.45-3.43333.13333-5.15-.05-5.15-.55,0-.53333.85-1.03333,2.55-1.5"/></g></g><g id="sprite7-2"><g id="shape7-2"><path class="cls-17" d="m214.13947,31.24411h2.1l-1.6-.05-.5.05m3.25-.8c1.03333-1.23333,3.15-2.81667,6.35-4.75l9.65.5.65.65,5.85-7.1c1.66667-1.7,3.41667-2.55,5.25-2.55,1.96667,0,3.31667.25,4.05.75l.95,1.05,1.6-2.65c.13333-.23333.78333-.35,1.95-.35.33333,0,.9-.26667,1.7-.8,1.73333,0,2.6,1.25,2.6,3.75v.05c.4-.5,1-1.91667,1.8-4.25,1.06667-2.03333,2.68333-3.05,4.85-3.05,3.23333,0,5.1.7,5.6,2.1l-.25,2.55c1.43333-.03333,2.73334.58333,3.9,1.85.9,1,1.35,1.8,1.35,2.4l-1.1,2.4c.73333.43333,1.1.8,1.1,1.1,0,.93333-1.2,1.93333-3.6,3l4.35,2.1c0,.3-.2.56667-.6.8l9.75,1.3,7,.95-15.7.75c-10,.4-19.6.6-28.8.6l-13.65-1c-7.2-.53333-15.43333-.56667-24.7-.1l-.05-.35,6-2.45c.36667,0,1.08333.25,2.15.75"/></g></g><g id="sprite8-2"><g id="shape8-2"><path class="cls-25" d="m97.33946,30.99412c.3,0,.55.13333.75.4.43333-1.33333,1.1-2,2-2,1.43333,0,2.15,1.01667,2.15,3.05l.05.05,2.3-1.25c.53333,0,.93333.23333,1.2.7l.3.75c.33333-.46667.85-.7,1.55-.7l1.25.7c.63333-.63333,1.1-.95,1.4-.95.9,0,1.66667.36667,2.3,1.1l-.1-1.1c0-1.66667.66667-2.5,2-2.5.56667,0,.98333.43333,1.25,1.3.86667-1.6,1.7-2.4,2.5-2.4.63333,0,1.36667.86667,2.2,2.6,3.2-3.2,5.26667-5.13333,6.2-5.8,1.43333-1.03333,2.96667-1.55,4.6-1.55s2.55.93333,2.75,2.8c0,.93333-.4,2.06667-1.2,3.4,1.56667-.46667,2.43333.7,2.6,3.5l-.9,2.5c1.4.03333,2.58333.5,3.55,1.4l.55.85c.33333.56667.8.78333,1.4.65,0,.2-.81667.46667-2.45.8l-.1.05c-.4.5-2.03333.75-4.9.75l-2.75.1.1-.3-.2-.05-.75-.1h-.1l-2.25-.2c-22.56667-.1-33.85-.35-33.85-.75,0-.26667.41667-.7,1.25-1.3.96667-.7,1.95-1.1,2.95-1.2l.05-.25c0-.36667-.2-.81667-.6-1.35-.43333-.53333-.65-1.06667-.65-1.6,0-1.4.53333-2.1,1.6-2.1m15.3,3.3l-.1.05h.1v-.05m-18.25,4.15h.05v-.05l-.05.05"/></g></g><g id="sprite8-3"><g id="shape8-3"><path class="cls-17" d="m751.13948,26.09412c.3,0,.55.13333.75.4.43333-1.33333,1.1-2,2-2,1.43333,0,2.15,1.01667,2.15,3.05l.05.05,2.3-1.25c.53333,0,.93333.23333,1.2.7l.3.75c.33333-.46667.85-.7,1.55-.7l1.25.7c.63333-.63333,1.1-.95,1.4-.95.9,0,1.66667.36667,2.3,1.1l-.1-1.1c0-1.66667.66667-2.5,2-2.5.56667,0,.98333.43333,1.25,1.3.86667-1.6,1.7-2.4,2.5-2.4.63333,0,1.36667.86667,2.2,2.6,3.2-3.2,5.26667-5.13333,6.2-5.8,1.43333-1.03333,2.96667-1.55,4.6-1.55s2.55.93333,2.75,2.8c0,.93333-.4,2.06667-1.2,3.4,1.56667-.46667,2.43333.7,2.6,3.5l-.9,2.5c1.4.03333,2.58333.5,3.55,1.4l.55.85c.33333.56667.8.78333,1.4.65,0,.2-.81667.46667-2.45.8l-.1.05c-.4.5-2.03333.75-4.9.75l-2.75.1.1-.3-.2-.05-.75-.1h-.1l-2.25-.2c-22.56667-.1-33.85-.35-33.85-.75,0-.26667.41667-.7,1.25-1.3.96667-.7,1.95-1.1,2.95-1.2l.05-.25c0-.36667-.2-.81667-.6-1.35-.43333-.53333-.65-1.06667-.65-1.6,0-1.4.53333-2.1,1.6-2.1m15.3,3.3l-.1.05h.1v-.05m-18.25,4.15h.05v-.05l-.05.05"/></g></g><g id="sprite8-4"><g id="shape8-4"><path class="cls-25" d="m709.78947,36.09411c.3,0,.55.13333.75.4.43333-1.33333,1.1-2,2-2,1.43333,0,2.15,1.01667,2.15,3.05l.05.05,2.3-1.25c.53333,0,.93333.23333,1.2.7l.3.75c.33333-.46667.85-.7,1.55-.7l1.25.7c.63333-.63333,1.1-.95,1.4-.95.9,0,1.66667.36667,2.3,1.1l-.1-1.1c0-1.66667.66667-2.5,2-2.5.56667,0,.98333.43333,1.25,1.3.86667-1.6,1.7-2.4,2.5-2.4.63333,0,1.36667.86667,2.2,2.6,3.2-3.2,5.26667-5.13333,6.2-5.8,1.43333-1.03333,2.96667-1.55,4.6-1.55s2.55.93333,2.75,2.8c0,.93333-.4,2.06667-1.2,3.4,1.56667-.46667,2.43333.7,2.6,3.5l-.9,2.5c1.4.03333,2.58333.5,3.55,1.4l.55.85c.33333.56667.8.78333,1.4.65,0,.2-.81667.46667-2.45.8l-.1.05c-.4.5-2.03333.75-4.9.75l-2.75.1.1-.3-.2-.05-.75-.1h-.1l-2.25-.2c-22.56667-.1-33.85-.35-33.85-.75,0-.26667.41667-.7,1.25-1.3.96667-.7,1.95-1.1,2.95-1.2l.05-.25c0-.36667-.2-.81667-.6-1.35-.43333-.53333-.65-1.06667-.65-1.6,0-1.4.53333-2.1,1.6-2.1m15.3,3.3l-.1.05h.1v-.05m-18.25,4.15h.05v-.05l-.05.05"/></g></g><g id="sprite9-2"><g id="shape9"><path class="cls-25" d="m174.93946,43.69411l1.8-.2v1.25l-22.6.05-9.9-.05c.4-1.63333,1.71667-2.25,3.95-1.85-.36667-1.76667.15-2.88333,1.55-3.35l4.35-.25c-.5-2.76667.3-4.21667,2.4-4.35l5.75,1.15c-.23333-1.56667.28333-2.45,1.55-2.65,1.06667-.16667,2.23333.13333,3.5.9,1.16667.76667,2.38333,2.53333,3.65,5.3l.9-1.25c1.66667,1.2,2.7,2.96667,3.1,5.3"/></g></g><g id="sprite7-3"><g id="shape7-3"><path class="cls-17" d="m160.03948,26.14411h2.1l-1.6-.05-.5.05m3.25-.8c1.03333-1.23333,3.15-2.81667,6.35-4.75l9.65.5.65.65,5.85-7.1c1.66667-1.7,3.41667-2.55,5.25-2.55,1.96667,0,3.31667.25,4.05.75l.95,1.05,1.6-2.65c.13333-.23333.78333-.35,1.95-.35.33333,0,.9-.26667,1.7-.8,1.73333,0,2.6,1.25,2.6,3.75v.05c.4-.5,1-1.91667,1.8-4.25,1.06667-2.03333,2.68333-3.05,4.85-3.05,3.23333,0,5.1.7,5.6,2.1l-.25,2.55c1.43333-.03333,2.73334.58333,3.9,1.85.9,1,1.35,1.8,1.35,2.4l-1.1,2.4c.73333.43333,1.1.8,1.1,1.1,0,.93333-1.2,1.93333-3.6,3l4.35,2.1c0,.3-.2.56667-.6.8l9.75,1.3,7,.95-15.7.75c-10,.4-19.6.6-28.8.6l-13.65-1c-7.2-.53333-15.43333-.56667-24.7-.1l-.05-.35,6-2.45c.36667,0,1.08333.25,2.15.75"/></g></g><g id="sprite9-3"><g id="shape9-2"><path class="cls-25" d="m207.43947,32.49411l1.8-.2v1.25l-22.6.05-9.9-.05c.4-1.63333,1.71667-2.25,3.95-1.85-.36667-1.76667.15-2.88333,1.55-3.35l4.35-.25c-.5-2.76667.3-4.21667,2.4-4.35l5.75,1.15c-.23333-1.56667.28333-2.45,1.55-2.65,1.06667-.16667,2.23333.13333,3.5.9,1.16667.76667,2.38333,2.53333,3.65,5.3l.9-1.25c1.66667,1.2,2.7,2.96667,3.1,5.3"/></g></g><g id="sprite8-5"><g id="shape8-5"><path class="cls-25" d="m266.83947,30.99412c.3,0,.55.13333.75.4.43333-1.33333,1.1-2,2-2,1.43333,0,2.15,1.01667,2.15,3.05l.05.05,2.3-1.25c.53333,0,.93333.23333,1.2.7l.3.75c.33333-.46667.85-.7,1.55-.7l1.25.7c.63333-.63333,1.1-.95,1.4-.95.9,0,1.66667.36667,2.3,1.1l-.1-1.1c0-1.66667.66667-2.5,2-2.5.56667,0,.98333.43333,1.25,1.3.86667-1.6,1.7-2.4,2.5-2.4.63333,0,1.36667.86667,2.2,2.6,3.2-3.2,5.26667-5.13333,6.2-5.8,1.43333-1.03333,2.96667-1.55,4.6-1.55s2.55.93333,2.75,2.8c0,.93333-.4,2.06667-1.2,3.4,1.56667-.46667,2.43333.7,2.6,3.5l-.9,2.5c1.4.03333,2.58333.5,3.55,1.4l.55.85c.33333.56667.8.78333,1.4.65,0,.2-.81667.46667-2.45.8l-.1.05c-.4.5-2.03333.75-4.9.75l-2.75.1.1-.3-.2-.05-.75-.1h-.1l-2.25-.2c-22.56667-.1-33.85-.35-33.85-.75,0-.26667.41667-.7,1.25-1.3.96667-.7,1.95-1.1,2.95-1.2l.05-.25c0-.36667-.2-.81667-.6-1.35-.43333-.53333-.65-1.06667-.65-1.6,0-1.4.53333-2.1,1.6-2.1m15.3,3.3l-.1.05h.1v-.05m-18.25,4.15h.05v-.05l-.05.05"/></g></g><g id="sprite10-2"><g id="shape10"><path class="cls-25" d="m325.78947,18.49412c.96667,0,1.88333.48333,2.75,1.45.5.7,1.23333,1.1,2.2,1.2,1.66667.23333,2.5,1.21667,2.5,2.95,0,.56667-.06667.95-.2,1.15l3.35,1.3-.15.25-12.45-.1-.15-.05-4-.1-.15-.2,1.75-.8-.1-.35c0-.6.73333-1.18333,2.2-1.75l-.35-1.2c0-.46667.25-1.15.75-2.05.63333-1.13333,1.31667-1.7,2.05-1.7"/></g></g><g id="sprite10-3"><g id="shape10-2"><path class="cls-25" d="m694.58947,38.49412c.96667,0,1.88333.48333,2.75,1.45.5.7,1.23333,1.1,2.2,1.2,1.66667.23333,2.5,1.21667,2.5,2.95,0,.56667-.06667.95-.2,1.15l3.35,1.3-.15.25-12.45-.1-.15-.05-4-.1-.15-.2,1.75-.8-.1-.35c0-.6.73333-1.18333,2.2-1.75l-.35-1.2c0-.46667.25-1.15.75-2.05.63333-1.13333,1.31667-1.7,2.05-1.7"/></g></g><g id="sprite10-4"><g id="shape10-3"><path class="cls-25" d="m605.48947,18.49412c.96667,0,1.88333.48333,2.75,1.45.5.7,1.23333,1.1,2.2,1.2,1.66667.23333,2.5,1.21667,2.5,2.95,0,.56667-.06667.95-.2,1.15l3.35,1.3-.15.25-12.45-.1-.15-.05-4-.1-.15-.2,1.75-.8-.1-.35c0-.6.73333-1.18333,2.2-1.75l-.35-1.2c0-.46667.25-1.15.75-2.05.63333-1.13333,1.31667-1.7,2.05-1.7"/></g></g><g id="sprite9-4"><g id="shape9-3"><path class="cls-25" d="m587.38947,32.29412l1.8-.2v1.25l-22.6.05-9.9-.05c.4-1.63333,1.71667-2.25,3.95-1.85-.36667-1.76667.15-2.88333,1.55-3.35l4.35-.25c-.5-2.76667.3-4.21667,2.4-4.35l5.75,1.15c-.23333-1.56667.28333-2.45,1.55-2.65,1.06667-.16667,2.23333.13333,3.5.9,1.16667.76667,2.38333,2.53333,3.65,5.3l.9-1.25c1.66667,1.2,2.7,2.96667,3.1,5.3"/></g></g></g><g id="Déco_halloween"><g id="use1722"><g id="sprite11"><g id="use1999"><g id="shape9-4"><path id="path2004" class="cls-40" d="m550.41838-41.3728V13.21727"/></g></g><g id="use2001"><g id="sprite12"><g id="use2007"><g id="shape10-4"><path id="path2012" class="cls-41" d="m546.21649,21.55215c-1.30878-.43626-2.67497.04592-4.09856,1.44655-1.56136,1.44655-2.365,2.8357-2.41092,4.16744"/><path id="path2014" class="cls-41" d="m544.63217,19.38233c-.89548-1.05621-2.31907-1.33174-4.27077-.8266-2.08946.48218-3.47861,1.28582-4.16744,2.41092"/><path id="path2016" class="cls-41" d="m544.39108,17.76357c-.27553-1.33174-1.36619-2.26167-3.27196-2.78978-2.04354-.64291-3.65082-.64291-4.82183,0"/><path id="path2018" class="cls-41" d="m553.69034,21.55215c1.28582-.43626,2.64053.04592,4.06412,1.44655,1.58432,1.44655,2.38796,2.8357,2.41092,4.16744"/><path id="path2020" class="cls-41" d="m555.20577,19.38233c.89548-1.05621,2.31907-1.33174,4.27077-.8266,2.08946.48218,3.47861,1.28582,4.16744,2.41092"/><path id="path2022" class="cls-41" d="m555.4813,17.76357c.27553-1.33174,1.36619-2.26167,3.27196-2.78978,2.04354-.64291,3.65082-.64291,4.82183,0"/><path id="path2024" class="cls-10" d="m550.34949,12.63176c1.92873,0,3.57045.55107,4.92516,1.6532,1.37767,1.12509,2.0665,2.4798,2.0665,4.06412s-.68883,2.93902-2.0665,4.06412c-1.35471,1.10213-2.99643,1.6532-4.92516,1.6532-1.90577,0-3.53601-.55107-4.89072-1.6532-1.37767-1.12509-2.0665-2.4798-2.0665-4.06412s.68883-2.93902,2.0665-4.06412c1.35471-1.10213,2.98495-1.6532,4.89072-1.6532"/></g></g><g id="use2009"><g id="sprite13"><g id="use2027"><g id="shape11"><path id="path2030" class="cls-25" d="m553.51813,14.49161c.73476,0,1.36619.26405,1.89429.79216.50514.52811.75772,1.1825.75772,1.96318,0,.75772-.25257,1.40063-.75772,1.92873-.52811.55107-1.15954.8266-1.89429.8266-.75772,0-1.40063-.27553-1.92873-.8266-.50514-.52811-.75772-1.17102-.75772-1.92873,0-.78068.25257-1.43507.75772-1.96318.52811-.52811,1.17102-.79216,1.92873-.79216"/><path id="path2032" class="cls-25" d="m547.35307,14.49161c.73476,0,1.36619.26405,1.89429.79216.50514.52811.75772,1.1825.75772,1.96318,0,.75772-.25257,1.40063-.75772,1.92873-.52811.55107-1.15954.8266-1.89429.8266-.75772,0-1.40063-.27553-1.92873-.8266-.50514-.52811-.75772-1.17102-.75772-1.92873,0-.78068.25257-1.43507.75772-1.96318.52811-.52811,1.17102-.79216,1.92873-.79216"/><path id="path2034" class="cls-10" d="m552.07158,15.83484c.36738,0,.68883.12629.96437.37886.25257.27553.37886.60847.37886.99881s-.12629.72328-.37886.99881c-.27553.27553-.59699.4133-.96437.4133-.39034,0-.72328-.13777-.99881-.4133-.25257-.27553-.37886-.60847-.37886-.99881s.12629-.72328.37886-.99881c.27553-.25257.60847-.37886.99881-.37886"/><path id="path2036" class="cls-10" d="m548.76518,15.83484c.36738,0,.68883.12629.96437.37886.25257.27553.37886.60847.37886.99881,0,.39034-.12629.72328-.37886.99881-.27553.27553-.59699.4133-.96437.4133-.39034,0-.72328-.13777-.99881-.4133-.25257-.27553-.37886-.60847-.37886-.99881s.12629-.72328.37886-.99881c.27553-.25257.60847-.37886.99881-.37886"/><path id="path2038" class="cls-25" d="m552.93262,15.93816l.48218.20665.20665.51663c0,.20665-.06888.37886-.20665.51663l-.48218.20665-.51663-.20665c-.13777-.13777-.20665-.30998-.20665-.51663s.06888-.37886.20665-.51663l.51663-.20665"/><path id="path2040" class="cls-25" d="m549.17848,15.93816l.48218.20665c.13777.13777.20665.30998.20665.51663s-.06888.37886-.20665.51663l-.48218.20665c-.20665,0-.37886-.06888-.51663-.20665-.13777-.13777-.20665-.30998-.20665-.51663l.20665-.51663c.13777-.13777.30997-.20665.51663-.20665"/></g></g></g></g></g></g></g></g><g id="use1724"><g id="sprite14"><g id="use2043"><g id="shape12"><path id="path2046" class="cls-7" d="m608.11791,65.43873l-1.56443-1.57065c-.01602-.47273.46646-.8581,1.44743-1.1561.82084-.25274,2.65712-.54692,5.50883-.88254,2.66513-.31055,4.69634-.83275,6.09364-1.56659,2.87117-2.66517,4.24445-4.10811,4.11982-4.32881,1.24627,2.207.80107,4.90242-1.33558,8.08627-.72823,1.11884-1.66986,1.88643-2.82488,2.30279l-2.8176.23606-2.24844.23083c-2.50222-.0675-4.62848-.51792-6.37879-1.35127"/><path id="path2048" class="cls-7" d="m608.95338,65.82512c-.32165.25691-.68263.83965-1.08294,1.74823-.33209.70945-.84171,1.15783-1.52888,1.34512-1.08053.26388-1.94593.27329-2.5962.02823l-3.34396-1.29597-2.27353-1.54662-2.39258-1.63748-1.95188-1.80353c.50824-.28198,1.78963-.28791,3.84418-.01781,1.11674.18239,2.29683-.04738,3.54027-.68931,2.0594-1.10772,5.10468-.70952,9.13582,1.19458l3.90687,2.03952-.24019.06789c-.20817.21792-1.14423.31993-2.8082.30603l-2.20876.26112"/><path id="path2050" class="cls-9" d="m619.9363,45.50856c3.42615,3.41004,5.0094,6.71149,4.74976,9.90436-.51024,6.09959-2.8387,9.53478-6.98538,10.30555-3.82642.68026-9.41152-.86074-16.75531-4.62301-4.29432-2.2724-6.57796-4.60122-6.85091-6.98647-.05362-.75261.13539-1.46659.56704-2.14193l1.13412-1.89756.3049-3.03274c.07657-1.1975.56252-1.99886,1.45785-2.40407,1.25597-.54864,2.10605-1.11398,2.55023-1.69603,2.36223-3.09543,6.41109-3.7106,12.14658-1.84551,3.4115,1.18004,5.97187,2.65251,7.68112,4.4174"/><path id="path2052" class="cls-31" d="m603.24068,51.66931c.17335-.83059,1.23159-1.61386,3.17473-2.34979,1.06173-.40382,2.01451-.1163,2.85834.86257-.31468,1.01579-1.2375,1.92333-2.76848,2.72261-1.35692.68092-2.65502,1.09276-3.89429,1.2355-.14969-.40729-.00872-.9486.42293-1.62394l.20676-.84696"/><path id="path2054" class="cls-9" d="m609.45642,43.85345l.00523.56916.94307,3.04317-12.49021-1.24257c.91131-3.11421,2.03428-5.27146,3.36892-6.47177.8452-.77839,2.46218-.3189,4.85094,1.37845l3.32205,2.72356"/><path id="path2056" class="cls-10" d="m604.1627,42.89065c1.68628,2.12414,1.88159,3.84311.58594,5.15689-1.18843,1.22815-2.54257,1.57628-4.06243,1.04439-.5709-.18449-.90823-.83963-1.01198-1.96542-.07103-1.05895.08108-2.13601.45632-3.23117.9691-2.86078,2.31315-3.19568,4.03215-1.0047"/><path id="path2058" class="cls-10" d="m612.75452,50.6405l3.09334,2.61183c.13299.81318-.30945,1.58495-1.32731,2.3153-1.00394.65725-2.14887,1.06037-3.43479,1.20938-1.33256.15528-2.32572-.07934-2.97948-.70384-1.69045-1.62495-2.2659-3.25723-1.72635-4.89684.58758-1.81227,2.71244-1.99088,6.37459-.53584"/><path id="path2060" class="cls-9" d="m596.18308,50.30238l12.37652,11.26606c.09471,1.41193-.27009,2.84998-1.0944,4.31414-1.01994,1.77538-2.37129,2.58614-4.05406,2.43231-1.80252-.1615-4.21111-1.47627-7.22578-3.94433-2.87612-2.32046-4.73958-4.34957-5.59039-6.08732-.68092-1.35692.04904-3.08147,2.18989-5.17364l3.39821-2.80721"/><path id="path2062" class="cls-31" d="m617.61174,53.65646c2.24809-.58695,3.80134-1.66228,4.65976-3.22601.683.3119,1.32737,1.66186,1.93312,4.04989.92045,2.9631.1992,5.63625-2.16374,8.01944-2.21534,2.24465-4.83067,3.36769-7.846,3.36912l-3.77736-.81035c-1.66745-.39334-2.77305-.31604-3.31679.23189l-.92004,1.37018c-.35089.56951-.7533.93225-1.20723,1.08821-2.3365.81252-5.01558-.39468-8.03722-3.62162-.52148-.52355-.66595-1.15711-.43342-1.90067l1.09651-2.17744,1.20723-1.08821c1.34785-1.98564,2.68633-2.45039,4.01543-1.39424l1.81402,1.57274,2.5461,1.18945.41561-1.9435c.10512-.63147.58446-1.04016,1.43803-1.22607.48666-.08912,1.42447-.00141,2.81343.26313,1.18984.19632,2.12591.09431,2.8082-.30603.54862-.33489,1.05023-1.01963,1.50485-2.05422l.36759-.97541,1.08192-.43028"/><path id="path2064" class="cls-10" d="m595.53978,50.8162l.25277,3.20713c.08356,1.15224.46859,2.07403,1.15507,2.76537l8.3401,5.61106-1.06937,1.319-1.54248-.61196c-2.94503-1.24271-5.48348-3.34735-7.61535-6.31391-.78953-1.10489-.94481-2.43745-.46583-3.99769l.94509-1.97902"/><path id="path2066" class="cls-10" d="m603.48088,51.60142l-1.29911,2.52521-2.17119-1.8453c-.30843-.52843.17648-.80727,1.45474-.83653l2.01556.15662"/><path id="path2068" class="cls-31" d="m608.16668,44.06233l.05117-.14934-.03552-.52947,6.65351,5.5171-3.95281-1.32102c-.56951-.35089-1.06071-.91412-1.47358-1.6897-.50477-.92945-.91903-1.53863-1.24278-1.82756"/><path id="path2070" class="cls-31" d="m596.97582,56.99862c.22348-.45742,1.0659-.90301,2.52726-1.33678l-.77278,1.67094c-.37108.59597-.83754.65864-1.3994.188l-.35508-.52216"/><path id="path2072" class="cls-31" d="m596.08399,58.5787l.65793.12531c.48875.45671.46822.92248-.0616,1.39731-.50963.44837-1.01334.58728-1.51114.41671l.9148-1.93933"/><path id="path2074" class="cls-9" d="m621.70449,54.95868l.07729.31016c.29173.93432-.29239,1.53517-1.75236,1.80254-.85356.1859-1.57449.82887-2.16278,1.92891.21929-1.54909.69723-2.58682,1.43382-3.11317,1.63124-.05294,2.43259-.36242,2.40403-.92845"/><path id="path2076" class="cls-7" d="m611.93173,60.68802l-.66942.05432c-.8285.37249-1.68206.55839-2.56069.55771-.23601.36413-.50057.95766-.79366,1.78059l-.65902-3.57995,2.50849.90958,2.1743.27776"/><path id="path2078" class="cls-7" d="m613.05754,62.17513l-2.0051.9817c.15803-.59109.68402-1.00605,1.57796-1.24486l2.14087-.50131c1.57623-.63915,2.9826-.8637,4.21908-.67366-1.2323.90162-2.20526,1.43599-2.91888,1.60309-1.33605-.22416-2.3407-.27915-3.01394-.16496"/></g></g></g></g><g id="use1730"><g id="sprite18"><g id="use2205"><g id="shape16"><path id="path2208" class="cls-10" d="m391.42243,37.58889l1.05283.35232c.87626.25403,1.76352.43141,2.66181.53215,2.84814.32424,5.22276-.16287,7.12386-1.46134,1.90896-1.30383,3.18604-3.3051,3.83124-6.0038.19367-.84655.31587-1.71341.3666-2.60058l.01575-1.06489.45209-.27422c.44894-.20294,1.03296-.3599,1.75207-.47089,1.14851-.17386,2.09786-.10799,2.84804.19759l-.968.50562c-.68594.48003-1.12882,1.10509-1.32863,1.87519-.19981.7701.04847,1.61433.74484,2.53269.35087.46311.7206.8442,1.10921,1.14329-.274.03738-.5799.17143-.9177.40215-.67272.48252-1.15372,1.2373-1.443,2.26436-.29464,1.0192-.21134,1.97611.24992,2.87072.23187.44069.49296.78079.78327,1.02029-.27572.1192-.56514.31111-.86826.57575-.62194.54-1.01299,1.19878-1.17313,1.97635-.26301,1.25105-.01576,2.59136.74176,4.02094-1.09455-1.13026-2.26572-1.79921-3.51351-2.00685-.79041-.12834-1.54526-.02751-2.26455.30249l-.84096.53982c-.15504-.41253-.41709-.83838-.78616-1.27753-.74599-.87294-1.64727-1.35758-2.70382-1.4539-1.06192-.10418-1.8958.12551-2.50165.68908l-.58772.88528c-.13722-.47078-.36162-.95114-.67321-1.44108-.6021-.98275-1.29816-1.52114-2.08818-1.61518-.79002-.09404-1.54142.07932-2.25419.52006l-.83549.67433c-.01651-.53019.25525-1.35519.81527-2.475.351-.70055.65678-1.19742.91736-1.4906l.28223-.24461"/><path id="path2210" class="cls-10" d="m399.6411,36.69313c.19521-.70936.61491-1.28403,1.25908-1.724.65203-.44534,1.34-.62722,2.06392-.54563.72928.08944,1.2844.41305,1.66535.97081s.48044,1.19257.29844,1.90442c-.18985.71721-.60686,1.29581-1.25104,1.73579s-1.33483.61793-2.07197.53385c-.72928-.08944-1.2844-.41305-1.66535-.97081s-.48044-1.19257-.29844-1.90442"/><path id="path2212" class="cls-10" d="m403.68295,34.64103l-2.27576.36198-.54852-2.32116,2.82428,1.95917"/><path id="path2214" class="cls-10" d="m400.73063,35.37871l-1.16508,1.98813-.79748-3.34349,1.96256,1.35536"/></g></g></g></g><g id="use1730-2"><g id="sprite18-2"><g id="use2205-2"><g id="shape16-2"><path id="path2208-2" class="cls-10" d="m347.82105,9.06382l.35095.11744c.29209.08468.58786.14381.88729.17739.94941.10808,1.74097-.05429,2.37468-.48713.63634-.43462,1.06204-1.10173,1.27711-2.00132.06456-.28219.10529-.57115.1222-.86688l.00525-.35497.1507-.09141c.14965-.06765.34433-.11997.58404-.15697.38285-.05795.69931-.036.94937.06586l-.32267.16855c-.22865.16001-.37628.36837-.44289.62508-.06661.25671.01616.53812.24829.84425.11696.15437.24021.28141.36975.38111-.09134.01246-.19331.05714-.30591.13405-.22425.16084-.38458.41245-.48101.75481-.09822.33974-.07045.65872.08331.95693.07729.1469.16433.26027.2611.34011-.09191.03973-.18839.10371-.28943.19192-.20732.18-.33767.3996-.39105.6588-.08767.41703-.00525.86381.24726,1.34035-.36486-.37676-.75526-.59975-1.1712-.66897-.26348-.04278-.5151-.00917-.75487.10083l-.28033.17994c-.05168-.13751-.13903-.27947-.26206-.42585-.24867-.29099-.5491-.45254-.9013-.48465-.35398-.03473-.63195.04184-.83391.2297l-.19591.2951c-.04574-.15693-.12054-.31706-.22441-.48037-.2007-.32759-.43273-.50706-.69608-.53841-.26335-.03135-.51382.02644-.75142.17336l-.2785.22478c-.0055-.17673.08509-.45174.27176-.82502.117-.23352.21893-.39915.30579-.49688l.09408-.08154"/><path id="path2210-2" class="cls-10" d="m350.56068,8.76522c.06507-.23646.20497-.42802.41971-.57468.21735-.14845.44668-.20908.68799-.18188.2431.02982.42814.13769.55513.32361s.16015.39753.09948.63482c-.06328.23908-.20229.43195-.41702.57861s-.44496.20598-.69067.17795c-.2431-.02982-.42814-.13769-.55513-.32361s-.16015-.39753-.09948-.63482"/><path id="path2212-2" class="cls-10" d="m351.908,8.08117l-.75861.12066-.18285-.77374.94145.65308"/><path id="path2214-2" class="cls-10" d="m350.92386,8.32707l-.38837.66273-.26583-1.11453.65421.4518"/></g></g></g></g><g id="use1730-3"><g id="sprite18-3"><g id="use2205-3"><g id="shape16-3"><path id="path2208-3" class="cls-10" d="m447.76301,19.65019l.45261.15146c.3767.10921.75814.18547,1.14431.22877,1.22442.13939,2.24527-.07002,3.06256-.62823.82066-.56052,1.36968-1.42087,1.64706-2.58104.08326-.36393.13579-.7366.1576-1.11799l.00677-.4578.19436-.11789c.193-.08724.44407-.15472.75322-.20243.49375-.07474.90187-.04643,1.22437.08494l-.41614.21737c-.29489.20636-.48528.47508-.57118.80615-.0859.33107.02084.694.32021,1.08881.15084.19909.30979.36292.47685.4915-.11779.01607-.2493.0737-.39452.17288-.2892.20743-.49599.53192-.62035.97345-.12667.43816-.09085.84953.10744,1.23413.09968.18946.21193.33566.33673.43862-.11853.05124-.24296.13375-.37327.24751-.26737.23215-.43548.51536-.50433.84964-.11307.53783-.00678,1.11403.31888,1.72861-.47055-.4859-.97404-.77348-1.51046-.86275-.3398-.05517-.66431-.01183-.97353.13004l-.36153.23207c-.06665-.17735-.17931-.36042-.33797-.54921-.3207-.37528-.70816-.58362-1.16238-.62503-.45652-.04479-.81501.05396-1.07546.29624l-.25266.38058c-.05899-.20239-.15546-.4089-.28941-.61952-.25884-.42248-.55808-.65394-.89771-.69437-.33963-.04043-.66266.0341-.96908.22358l-.35918.28989c-.0071-.22793.10973-.5826.35049-1.06401.15089-.30117.28235-.51477.39437-.64081l.12133-.10516"/><path id="path2210-3" class="cls-10" d="m451.29622,19.2651c.08392-.30495.26435-.552.54128-.74115.28031-.19145.57607-.26964.88728-.23457.31352.03845.55216.17757.71594.41735s.20654.51269.1283.81871c-.08162.30833-.26089.55707-.53782.74622s-.57385.26565-.89074.2295c-.31352-.03845-.55216-.17757-.71594-.41735s-.20654-.51269-.1283-.81871"/><path id="path2212-3" class="cls-10" d="m453.03382,18.3829l-.97835.15562-.23581-.99787,1.21416.84225"/><path id="path2214-3" class="cls-10" d="m451.76461,18.70003l-.50087.8547-.34284-1.43737.84371.58267"/></g></g></g></g><g id="use1732"><g id="sprite19"><g id="use2217"><g id="sprite20"><g id="use2220"><g id="sprite21"><g id="use2225"><g id="shape17"><path id="path2228" class="cls-15" d="m311.51737,54.55791c-1.61569,2.54272-3.86705,4.75436-6.7541,6.63491-2.91353,1.93353-5.77409,3.07245-8.58168,3.41678l-7.58843.7946-.87406-40.1273,4.92652-1.03298c3.70813-.52973,6.68788-.31784,8.93925.63568,4.05246,1.69515,7.07194,5.40328,9.05844,11.1244,2.99299,8.58168,3.28435,14.76632.87406,18.55391"/><path id="path2230" class="cls-15" d="m253.67049,54.55791c-2.41029-3.78759-2.11893-9.97223.87406-18.55391,2.09245-5.74761,5.12517-9.45574,9.09817-11.1244,3.62867-1.50974,8.18438-1.37731,13.66712.3973l-.59595,40.1273-7.62816-.7946c-2.83407-.34433-5.72112-1.48325-8.66114-3.41678-2.86056-1.88055-5.11193-4.09219-6.7541-6.63491"/><path id="path2232" class="cls-16" d="m307.90194,33.06398c2.70164,4.97949,4.05246,9.97223,4.05246,14.97821,0,4.79409-2.55596,8.87303-7.66789,12.23684-5.45625,3.60219-12.46198,5.40328-21.01717,5.40328h-1.70839c-8.42276,0-15.41524-1.8938-20.97744-5.68139-5.08544-3.49624-7.62816-7.48248-7.62816-11.95873,0-4.71463,1.31109-9.61466,3.93327-14.7001,2.94002-5.64166,6.31707-8.68762,10.13115-9.1379l9.21736.43703,6.43626,1.11244,6.31707-.71514,8.82006-.43703c3.76111.18541,7.12491,3.00624,10.09142,8.46249"/><path id="path2234" class="cls-22" d="m287.52045,55.71008c-1.50974,4.58219-4.50273,7.456-8.97898,8.62141-4.05246,1.03298-8.48898.56946-13.30955-1.39055l-3.89354-2.26461c-1.88055-1.32433-3.15191-2.17191-3.81408-2.54272-1.50974-.84757-2.72813-2.74137-3.65516-5.68139-.50325-1.61569-.56946-4.18489-.19865-7.70762.10595-.92703.94028-3.65516,2.50299-8.18438.55622-2.22488,1.04622-3.73462,1.47001-4.52922,1.13893-1.35082,1.86731-2.37056,2.18515-3.05921.55622-1.08595,2.42353-2.39704,5.60193-3.93327.71514-.34432,1.84082-.54297,3.37705-.59595,1.61569-.05297,2.76786.10595,3.45651.47676.84757.45027,1.29785,1.44352,1.35082,2.97975.15892,2.67515,1.66866,4.33057,4.52922,4.96625,2.64867.58271,5.19139,2.03947,7.62816,4.3703,2.03947,1.9865,3.12543,4.92652,3.25786,8.82006.07946,3.1784-.42379,6.39653-1.50974,9.65439"/><path id="path2236" class="cls-22" d="m288.23559,25.39609l4.84706.07946c1.80109.29135,2.94002,1.13893,3.41678,2.54272,1.13893,3.28435-1.0992,4.92652-6.71437,4.92652l-4.7676-.11919c-1.93353-.34433-2.97975-1.23163-3.13867-2.66191-.13243-1.21838.72838-2.3838,2.58245-3.49624,1.69515-1.05946,3.1784-1.54947,4.44976-1.47001l-.67541.19865"/><path id="path2238" class="cls-33" d="m273.61495,29.2499h.31784c.07946.47676-.05297,1.04622-.3973,1.70839l-.51649,4.64841-2.02623,3.85381c-.37081,1.56271-.31784,4.34381.15892,8.3433l-.31784,8.46249c.07946,1.05947.62244,2.25137,1.62893,3.5757v3.85381l-1.31109-.15892c-.23838-2.48975-.64892-4.23787-1.23163-5.24436l-1.23163-1.62893c-.45027-.55622-.66217-1.16541-.63568-1.82758l.03973-3.73462c-.21189-.92703-.25162-2.22488-.11919-3.89354l.23838-3.93327-.23838-3.93327c0-1.66866.38406-2.76786,1.15217-3.29759l1.62893-1.03298c.18541-.34433.27811-1.24487.27811-2.70164.42379-1.37731,1.2846-2.39704,2.58245-3.05921"/><path id="path2240" class="cls-33" d="m264.55651,29.40882c-1.5892,1.40379-2.96651,2.97975-4.13192,4.72787-.66217.98001-.95352,2.22488-.87406,3.73462.07946,1.88055-.27811,3.60219-1.07271,5.1649-.98001,1.88055-1.29785,3.28435-.95352,4.21138.26487.76811.90055,2.14542,1.90704,4.13192l2.86056,7.03221,1.31109,2.62218-.47676-.03973c-.55622-.34433-1.21839-1.25812-1.9865-2.74137-.23838-.47676-1.25812-1.2846-3.05921-2.42353-.10595-1.64217-.37081-2.72813-.7946-3.25786-.84757-1.08595-1.21839-2.11893-1.11244-3.09894.15892-2.06596.05297-3.64192-.31784-4.72787-.29135-.82109-.03973-2.31758.75487-4.48949l.43703-3.45651c.13244-.74163.82109-1.70839,2.06596-2.90029l2.06596-2.42353c.3973-.3973.68865-.91379.87406-1.54947.29135-.52973,1.21839-1.23163,2.7811-2.10569.95352-.52973,2.31758-.83433,4.09219-.91379-1.29785.21189-2.75461,1.04622-4.3703,2.50299"/><path id="path2242" class="cls-16" d="m282.27609,26.30988c-2.51623.3973-3.973,1.32433-4.3703,2.7811-.15892.58271.3973,1.74812,1.66866,3.49624.90055,1.24487.60919,1.86731-.87406,1.86731-1.77461,0-3.13867-1.01974-4.09219-3.05921-.76811-1.74812-1.01974-3.37705-.75487-4.88679.29135-1.5892,3.09894-1.65542,8.42276-.19865"/><path id="path2244" class="cls-24" d="m309.80898,36.7986c1.29785,3.84057,2.01299,7.58843,2.14542,11.24359.13243,3.41678-1.29785,6.67464-4.29084,9.77358-2.96651,2.99299-6.67464,5.09868-11.1244,6.31707-5.64166,1.53623-12.63414,1.96002-20.97744,1.27136,1.40379,0,3.50948-.49,6.31707-1.47001,5.72112-1.9865,9.69412-3.53597,11.919-4.64841,5.40328-2.72813,8.29033-5.61517,8.66114-8.66114.37081-2.91353.3973-6.34356.07946-10.29007l-.71514-8.18438c-.13243-2.27785-1.31109-4.72787-3.53597-7.35005l2.02623.59595c1.64217.66217,3.23137,1.65542,4.7676,2.97975,1.80109,1.53623,3.37705,4.34382,4.72787,8.42276"/><path id="path2246" class="cls-24" d="m304.08786,28.13746c3.44327,2.96651,5.1649,5.77409,5.1649,8.42276,0,1.43028-.23838,3.77435-.71514,7.03221-.15892,1.64217-1.0065,4.33057-2.54272,8.06519-.47676,1.90704-1.23163,3.62867-2.26461,5.1649l-2.14542,3.05921c-.87406,1.00649-1.8938,1.74812-3.05921,2.22488-5.45625,2.09245-8.88628,3.0857-10.29007,2.97975,2.94002-3.12543,5.03247-5.82707,6.27734-8.10492.63568-1.16541.82109-2.84732.55622-5.04571-.45027-2.41029-.7019-4.11868-.75487-5.12517-.10595-4.31733.67541-7.946,2.34407-10.88602.50325-.87406,1.62893-2.39704,3.37705-4.56895,1.37731-2.06596,1.80109-3.78759,1.27136-5.1649.42379.07946,1.35082.72838,2.7811,1.94677"/><path id="path2248" class="cls-34" d="m294.39374,32.86533c.60919.29135,1.43028,1.21838,2.46326,2.7811l-.67541,1.31109c-1.35082-1.66866-2.42353-2.51623-3.21813-2.54272l.43703-.11919-.55622-.03973c-.21189-.55622-.21189-1.11244,0-1.66866l1.54947.27811"/><path id="path2250" class="cls-38" d="m296.857,35.64643l1.9865,2.46326c.34433.42379,1.11244,1.82758,2.30434,4.21138.3973.82109.54298,2.46326.43703,4.92652v5.24436c.02649,2.25137-.06622,3.99949-.27811,5.24436-.26487,1.66866-1.29785,2.94002-3.09894,3.81408-2.33083,1.11244-3.58894,1.94677-3.77435,2.50299.07946-.60919.46352-1.37731,1.15217-2.30434l1.50974-2.18515c.71514-1.40379,1.13893-3.74786,1.27136-7.03221.29135-5.00598.3973-7.946.31784-8.82006-.29135-2.59569-.92703-4.58219-1.90704-5.9595l-.59595-.7946.67541-1.31109"/><path id="path2252" class="cls-20" d="m292.96346,25.6742c.95352-.13243,1.61569.31784,1.9865,1.35082.37081,1.05947-.03973,1.62893-1.23163,1.70839-1.24487.05297-1.9865-.3973-2.22488-1.35082-.23838-.92703.25162-1.4965,1.47001-1.70839"/><path id="path2254" class="cls-20" d="m292.84427,30.0445c.42379-.07946.59595.31784.51649,1.1919-.07946.84757-.45027,1.24487-1.11244,1.1919-.68865-.05297-.91379-.43703-.67541-1.15217.23838-.71514.66217-1.12568,1.27136-1.23163"/><path id="path2256" class="cls-28" d="m266.30463,26.34961l-.43703-.15892c.98001-.10595,1.48325.27811,1.50974,1.15217l-.03973,2.18515c.18541.55622.7019,1.01974,1.54947,1.39055,1.11244.45027,1.77461.78136,1.9865.99325-.15892.60919-.7019,1.13893-1.62893,1.5892-.92703.47676-1.70839.64892-2.34407.51649-.63568-.13243-1.03298-.59595-1.1919-1.39055-.13243-.7946-.49-1.25812-1.07271-1.39055l-2.42353-.31784c-.71514-.21189-.92703-.82109-.63568-1.82758.34433-1.32433,1.92028-2.23812,4.72787-2.74137"/><path id="path2258" class="cls-28" d="m272.14494,35.32859l.43703-.23838c.74163.07946,1.36406.42379,1.86731,1.03298.55622.66217.43703,1.1919-.35757,1.5892-.76811.3973-1.52298.15892-2.26461-.71514-.74163-.84757-.63568-1.40379.31784-1.66866"/><path id="path2260" class="cls-34" d="m282.75285,33.89831l-.15892-.15892c.58271-1.08595,1.03298-1.57596,1.35082-1.47001.23838.07946.76811,1.01973,1.5892,2.82083.23838.63568.31784,1.6819.23838,3.13867.15892,1.00649.64892,2.74137,1.47001,5.20463.10595.7946.06622,2.05272-.11919,3.77435l.15892,6.3568c0,2.62218-.23838,4.6749-.71514,6.15815l-1.03298,3.53597c-.60919,1.48325-1.4965,2.14542-2.66191,1.9865-.02649-.68865.15892-1.48325.55622-2.3838.45027-1.00649.7019-1.78785.75487-2.34407l.43703-7.42951-.15892-9.5352c0-1.29785-.25162-2.97975-.75487-5.04571.10595-2.64867-.21189-4.18489-.95352-4.60868"/><path id="path2262" class="cls-16" d="m308.18005,35.56697c.87406,1.66866,1.35082,2.83407,1.43028,3.49624.13243.82109.03973,2.37056-.27811,4.64841,0,4.29084-.42379,6.92626-1.27136,7.90627.21189-2.94002.25163-5.00598.11919-6.19788l-.71514-6.27734c-.15892-1.43028-1.15217-3.19164-2.97975-5.28409-2.56921-3.46975-4.50273-5.91977-5.80058-7.35005,1.05947-.18541,3.00624.86082,5.84031,3.13867.84757.68865,2.06596,2.66191,3.65516,5.91977"/><path id="path2264" class="cls-18" d="m273.4163,35.24913c0,.7946-.05297,1.2846-.15892,1.47001l-.95352.87406c-1.03298-.84757-1.03298-1.60244,0-2.26461l1.11244-.07946"/><path id="path2266" class="cls-18" d="m264.39759,27.30313l.07946.3973,1.23163,1.03298c.50325.47676.54298.8873.11919,1.23163l-3.73462.07946c-.13243-.60919.03973-1.21839.51649-1.82758.47676-.60919,1.07271-.91379,1.78785-.91379"/><path id="path2268" class="cls-18" d="m267.13896,31.15694l.11919-.19865c.7946.02649,1.1919.33108,1.1919.91379-.02649.55622-.3973.80784-1.11244.75487-.47676-.05297-.76811-.3046-.87406-.75487s.11919-.68865.67541-.71514"/><path id="path2270" class="cls-18" d="m292.40724,26.30988l.43703-.31784c1.16541.98001,1.24487,1.64217.23838,1.9865-.47676.18541-.83433-.01324-1.07271-.59595-.23838-.55622-.10595-.91379.3973-1.07271"/><path id="path2272" class="cls-22" d="m285.53395,29.92531c.15892-1.37731-1.05947-2.15866-3.65516-2.34407l-5.52247-.63568c-.63568-.15892-1.12568-.52973-1.47001-1.11244-.37081-.60919-.13243-.95352.71514-1.03298l2.10569.19865,1.86731.51649,6.47599.23838,2.97975-.27811c.58271.18541.84757.82109.7946,1.90704-.02649.66217-.43703,1.31109-1.23163,1.94677l-3.05921.59595"/><path id="path2274" class="cls-22" d="m278.89904,26.4688c-1.45677-.26487-2.97975.17216-4.56895,1.31109-.92703.63568-1.31109,1.25812-1.15217,1.86731l1.50974,1.39055c-.87406-.45027-1.37731-.91379-1.50974-1.39055l-1.07271-1.15217c-.87406-1.11244-.96676-2.23812-.27811-3.37705.3973-.63568,1.32433-.76811,2.7811-.3973l3.21813.83433,1.07271.91379"/><path id="path2276" class="cls-33" d="m284.06394,40.7716c-.31784-2.09245-.45027-3.72138-.3973-4.88679l1.31109,1.03298c.52973.52973.96676.84757,1.31109.95352.21189,3.89354.3973,6.40977.55622,7.5487l.27811,6.7541.19865,2.97975c.05297,1.37731-.05297,2.33083-.31784,2.86056-.21189.42379-.80784.92703-1.78785,1.50974l-1.43028,1.5892.67541-2.86056v-9.05844c0-5.21787-.35757-8.2506-1.07271-9.09817l.67541.67541"/><path id="path2278" class="cls-24" d="m281.44176,30.28288l2.7811-1.5892,2.34407.43703c1.08595.3973,1.41704.91379.99325,1.54947-.45027.71514-1.45677.94027-3.01948.67541-1.32433-.21189-2.35731-.56946-3.09894-1.07271"/><path id="path2280" class="cls-8" d="m282.07744,27.77989c2.33083,0,3.45651.49,3.37705,1.47001-.07946.98001-1.20514,1.47001-3.37705,1.47001-2.09245,0-3.12543-.49-3.09894-1.47001.05297-.98001,1.08595-1.47001,3.09894-1.47001"/><path id="path2282" class="cls-8" d="m282.63366,24.12473c0,.42379.34433,1.12568,1.03298,2.10569.58271.84757.74163,1.62893.47676,2.34407-.23838.60919-.90055.99325-1.9865,1.15217-1.11244.13243-1.81434-.11919-2.10569-.75487-.13243-.29135-.06622-.59595.19865-.91379.34433-.37081.51649-.64892.51649-.83433.02649-.26487-.10595-.50325-.3973-.71514l-.63568-.59595c-.58271-.98001-.3973-2.15866.55622-3.53597.98001-1.40379,1.85407-1.54947,2.62218-.43703.34433.50325.25162,1.23163-.27811,2.18515"/></g></g></g></g><g id="use2222"><g id="shape18"><path id="path2285" class="cls-19" d="m303.6111,34.21615l.71514.07946c.42379.13243.58271.45027.47676.95352-.18541.7946-3.76111,4.15841-10.7271,10.09142l-3.85381-7.42951,13.38901-3.69489"/><path id="path2287" class="cls-19" d="m265.94706,34.21615l12.07792,3.69489-2.54272,7.42951-5.24436-4.60868c-3.54921-3.15191-5.37679-4.97949-5.48274-5.48274-.10595-.50325.06622-.82109.51649-.95352l.67541-.07946"/><path id="path2289" class="cls-3" d="m284.06394,62.54364c-4.90003,0-10.71386-3.0857-17.44147-9.25709-2.09245-1.96001-4.15841-4.09219-6.19788-6.39653l-2.42353-2.90029.31784.15892c11.30981,4.66165,19.89149,6.99248,25.74504,6.99248,2.67515,0,4.82057.59595,6.43626,1.78785,1.45677,1.05947,2.19839,2.37056,2.22488,3.93327.02649,1.53623-.67541,2.83407-2.10569,3.89354-1.5892,1.1919-3.77435,1.78785-6.55545,1.78785"/><path id="path2291" class="cls-22" d="m269.20492,56.98144l-5.04571-5.04571,4.52922-.23838.51649,5.28409"/><path id="path2293" class="cls-3" d="m301.30676,53.28655c-6.72761,6.17139-12.54144,9.25709-17.44147,9.25709-2.7811,0-4.96625-.59595-6.55545-1.78785-1.43028-1.05947-2.13218-2.35731-2.10569-3.89354.02649-1.56271.76811-2.8738,2.22488-3.93327,1.61569-1.1919,3.76111-1.78785,6.43626-1.78785,6.03896,0,14.6074-2.33083,25.70531-6.99248l.35757-.15892c-2.3838,3.09894-5.25761,6.19788-8.62141,9.29682"/><path id="path2295" class="cls-24" d="m298.32701,56.98144l.55622-5.28409,4.48949.23838-5.04571,5.04571"/><path id="path2297" class="cls-22" d="m269.36384,40.97025l3.973-1.9865.11919,4.88679-4.09219-2.90029"/><path id="path2299" class="cls-24" d="m295.70483,44.26784l-.67541-4.88679,3.85381,2.10569-3.1784,2.7811"/><path id="path2301" class="cls-19" d="m281.79933,47.04894l2.7811-5.04571,2.3838,5.04571h-5.1649"/><path id="path2303" class="cls-22" d="m262.17271,45.57893l5.84031,1.9865-2.90029,2.54272-2.94002-4.52922"/><path id="path2305" class="cls-22" d="m271.31061,48.75733v-.23838l7.946,1.03298-3.81408,4.3703-4.13192-5.1649"/><path id="path2307" class="cls-24" d="m305.75652,45.73785l-2.90029,4.48949-2.94002-2.50299,5.84031-1.9865"/><path id="path2309" class="cls-16" d="m296.61862,48.91625l-4.09219,5.1649-3.85381-4.3703,7.946-1.07271v.27811"/><path id="path2311" class="cls-38" d="m301.66433,47.04894l-.03973,2.22488c-1.27136-.3973-1.96002-.91379-2.06596-1.54947l1.31109-.7946.7946.11919"/><path id="path2313" class="cls-24" d="m294.63212,48.63814l2.7811-.27811c-1.82758,2.25137-2.74137,3.1784-2.74137,2.7811l-.03973-2.50299"/><path id="path2315" class="cls-22" d="m280.60743,62.66283l-6.23761-2.3838-.27811-.23838,4.3703-3.33732,2.14542,5.9595"/><path id="path2317" class="cls-24" d="m293.44022,60.04065l-.27811.23838-6.19788,2.3838,2.10569-5.9595,4.3703,3.33732"/><path id="path2319" class="cls-38" d="m301.50541,54.51818l-.71514,1.1919c-.10595.50325-.45027.95352-1.03298,1.35082l-1.50974.91379.35757-3.13867c-.02649-1.37731-.01324-2.39704.03973-3.05921l2.74137.19865.11919,2.54272"/><path id="path2321" class="cls-33" d="m270.91331,42.20188l-1.43028-1.03298c-.58271-.52973-.43703-.80784.43703-.83433.63568-.05297.96676.56946.99325,1.86731"/><path id="path2323" class="cls-19" d="m260.66297,47.48597l-2.66191-3.49624,4.3703,1.70839,2.46326,4.25111,1.5892-.99325,3.09894,1.78785-.83433.95352-3.65516.23838-4.3703-4.44976"/><path id="path2325" class="cls-19" d="m269.52276,50.74383l1.5892,3.5757-2.10569,1.11244-.31784-3.73462.83433-.95352"/><path id="path2327" class="cls-19" d="m269.00627,55.43197l2.10569-1.11244,4.56895,2.7811-.91379,2.3838-3.65516-2.3838-2.10569-1.66866"/><path id="path2329" class="cls-19" d="m278.46201,56.70333l-3.69489,2.7811.91379-2.3838,3.37705-2.58245-.3973,1.90704-.19865.27811"/><path id="path2331" class="cls-19" d="m280.52797,62.18607l-2.06596-5.48274.67541-2.18515,3.77435,4.09219h.71514l1.9865-.59595,2.58245-4.68814.87406,3.37705-2.06596,5.5622-2.90029.3973-3.5757-.47676"/><path id="path2333" class="cls-19" d="m301.6246,49.27382l1.23163.95352,3.09894-4.44976,3.973-1.78785-4.17165,4.96625-2.97975,3.09894-4.17165-.51649-.07946,2.30434-.11919,1.86731-2.86056,2.18515-2.58245,1.70839-3.89354-2.90029-.87406-3.37705,4.7676,3.29759,3.85381-2.50299.59595-4.25111,2.7811-1.35082,1.43028.75487"/><path id="path2335" class="cls-3" d="m303.37272,34.25588l-1.07271,1.1919-4.7676,2.90029-3.69489-.71514.19865,3.973-1.66866.59595-2.14542-4.29084,13.15063-3.65516"/><path id="path2337" class="cls-3" d="m265.39084,34.05723l13.15063,3.65516-2.10569,4.29084-1.70839-.59595.19865-3.973-3.65516.71514-4.7676-2.90029-1.11244-1.1919"/><path id="path2339" class="cls-3" d="m282.87204,44.98298l1.70839-2.97975,1.39055,2.97975h-3.09894"/></g></g></g></g></g></g><g id="use1734"><g id="sprite14-2"><g id="use2043-2"><g id="shape12-2"><path id="path2046-2" class="cls-7" d="m249.59336,66.32646l1.44902-1.06617c.07133-.37716-.26796-.74592-1.01786-1.10628-.62707-.30425-2.06342-.76735-4.30906-1.38931-2.09909-.57877-3.66358-1.24887-4.69347-2.01029-1.97305-2.49273-2.89595-3.81989-2.7687-3.98148-1.27257,1.6159-1.24896,3.83278.07083,6.65063.44565.98743,1.1059,1.71955,1.98075,2.19637l2.23059.53789,1.77475.46329c2.0152.25541,3.77624.1572,5.28313-.29464"/><path id="path2048-2" class="cls-7" d="m248.87549,66.533c.22619.24584.44362.75787.65228,1.5361.17858.61008.53184,1.03274,1.0598,1.26796.83397.34531,1.52688.45992,2.07873.34382l2.84227-.62572,2.01477-.95917,2.12149-1.01732,1.78858-1.20502c-.37274-.28903-1.39971-.45231-3.08093-.48984-.91822.00813-1.83626-.32214-2.75412-.99081-1.51466-1.14319-4.00632-1.20055-7.47496-.1721l-3.38572,1.15243.18424.08416c.14.20053.87813.39814,2.2144.59284l1.73918.48267"/><path id="path2050-2" class="cls-9" d="m242.58023,48.87986c-3.16972,2.3111-4.84795,4.76309-5.0347,7.35598-.34535,4.95516,1.09717,7.99833,4.32757,9.12949,2.98474,1.01895,7.65478.47396,14.01013-1.63499,3.72528-1.29128,5.84492-2.87655,6.35891-4.75582.13611-.59698.07284-1.19299-.18981-1.78803l-.67485-1.6622.13064-2.47006c.08673-.9699-.20388-1.67273-.87183-2.10848-.93945-.5954-1.5513-1.15398-1.83554-1.67575-1.51164-2.77485-4.68284-3.76911-9.51359-2.98279-2.8821.52439-5.11774,1.38861-6.70694,2.59265"/><path id="path2052-2" class="cls-31" d="m255.20844,55.88636c-.03628-.6876-.78812-1.44672-2.25553-2.27734-.80158-.45522-1.60131-.34249-2.39918.3382.12672.85362.75458,1.69565,1.88359,2.5261,1.00405.71398,1.99422,1.20487,2.97049,1.47266.17044-.30814.12434-.75972-.13831-1.35476l-.06105-.70486"/><path id="path2054-2" class="cls-9" d="m251.19014,48.84888l-.07461.45583-1.13284,2.32404,10.17121.54858c-.34564-2.61042-.97942-4.47952-1.90135-5.6073-.58158-.72885-1.93528-.56036-4.06111.50545l-3.00131,1.7734"/><path id="path2056-2" class="cls-10" d="m255.55496,48.73157c-1.61522,1.49501-1.98452,2.84951-1.1079,4.06348.80122,1.13203,1.84421,1.57876,3.12898,1.34019.4807-.07734.8323-.56105,1.05478-1.45112.18797-.84052.19922-1.72317.03374-2.64794-.42334-2.41431-1.45987-2.84918-3.1096-1.30461"/><path id="path2058-2" class="cls-10" d="m247.70535,53.88428l-2.80405,1.71208c-.20726.63574.05211,1.30945.77811,2.02114.72388.65133,1.59227,1.11628,2.60518,1.39487,1.04954.28939,1.87511.22408,2.4767-.19591,1.55681-1.09413,2.22026-2.33208,1.99036-3.71383-.24706-1.52618-1.92916-1.9323-5.0463-1.21835"/><path id="path2060-2" class="cls-9" d="m261.03793,55.66314l-11.32003,7.50459c-.25063,1.12069-.13595,2.31918.34404,3.59545.59839,1.55008,1.58191,2.36751,2.95057,2.4523,1.46565.09346,3.56005-.66306,6.28322-2.26956,2.59379-1.50527,4.33936-2.90214,5.23671-4.19062.71398-1.00405.34188-2.47749-1.11632-4.42031l-2.37818-2.67185"/><path id="path2062-2" class="cls-31" d="m243.43662,55.70227c-1.73042-.74886-2.84314-1.80346-3.33817-3.1638-.58637.16566-1.27017,1.16865-2.05142,3.00898-1.10479,2.26262-.85702,4.49578.7433,6.69949,1.49908,2.07433,3.45772,3.29858,5.87592,3.67275l3.12979-.18262c1.386-.10919,2.26316.08958,2.63147.5963l.56839,1.21274c.21097.50017.48884.84088.83361,1.02212,1.77342.94071,4.07146.30393,6.8941-1.91036.48301-.35539.67726-.84565.58275-1.47077l-.61007-1.88202-.83361-1.02212c-.83537-1.75928-1.85137-2.2976-3.048-1.61496l-1.64946,1.03697-2.18919.639-.0929-1.61016c-.00619-.51946-.34008-.90654-1.00166-1.16124-.37929-.13168-1.14229-.17735-2.289-.13701-.97857.01026-1.7167-.18736-2.21439-.59285-.39858-.33646-.71618-.94769-.95281-1.8337l-.17415-.82778-.8145-.47894"/><path id="path2064-2" class="cls-10" d="m261.49031,56.15482l-.59948,2.54094c-.20956.91379-.6324,1.60546-1.2685,2.07501l-7.38313,3.46848.69449,1.19017,1.31282-.29999c2.51573-.63236,4.812-2.00631,6.88881-4.12184.76991-.78848,1.0593-1.83802.86816-3.14863l-.51317-1.70414"/><path id="path2066-2" class="cls-10" d="m255.02419,55.8022l.72953,2.186,1.96963-1.21138c.31274-.38566-.04167-.66929-1.06325-.85089l-1.63591-.12373"/><path id="path2068-2" class="cls-31" d="m252.19871,49.17596l-.02256-.1261.09399-.42026-6.01882,3.60176,3.33369-.57049c.50017-.21097.9638-.60193,1.39088-1.17289.51982-.683.92743-1.12033,1.22283-1.31201"/><path id="path2070-2" class="cls-31" d="m259.57374,60.93563c-.12265-.39451-.74317-.8561-1.86156-1.38478l.41308,1.43574c.22389.52389.59025.63186,1.0991.3239l.34938-.37486"/><path id="path2072-2" class="cls-31" d="m260.09355,62.31323l-.54318.01911c-.44849.30583-.48965.68193-.12346,1.1283.35327.42265.74007.59637,1.16042.52116l-.49378-1.66857"/><path id="path2074-2" class="cls-9" d="m239.99303,56.24038l-.10036.2392c-.34956.71326.04459,1.26742,1.18245,1.66247.66158.25469,1.16025.85956,1.49599,1.81459.01576-1.26954-.23918-2.16095-.76483-2.67422-1.30175-.24426-1.90617-.5916-1.81324-1.04204"/><path id="path2076-2" class="cls-7" d="m247.12228,62.04445l.53017.12638c.6184.40124,1.27998.65593,1.98475.76408.14424.32124.283.82999.41627,1.52627l.97143-2.78969-2.12441.41918-1.77821-.04621"/><path id="path2078-2" class="cls-7" d="m246.03538,63.09788l1.4867,1.0354c-.05362-.49362-.42415-.8915-1.11157-1.19362l-1.65502-.66691c-1.18511-.70761-2.28528-1.06169-3.30048-1.06223.8768.87557,1.59103,1.42451,2.14271,1.64681,1.09928-.0145,1.91184.06568,2.43767.24055"/></g></g></g></g><g id="use1736"><g id="sprite18-4"><g id="use2205-4"><g id="shape16-4"><path id="path2208-4" class="cls-10" d="m596.16025,5.54134l.61602,1.29815c.54927,1.04526,1.17991,2.03202,1.89192,2.96029,2.25303,2.94755,4.838,4.72543,7.75491,5.33366,2.92896.61074,5.94151.00632,9.03764-1.81325.9634-.57891,1.88161-1.24271,2.75464-1.9914l1.00741-.94077.66142.17565c.5921.23666,1.26252.64058,2.01126,1.21176,1.19266.91529,1.98302,1.8599,2.37108,2.83381l-1.34015-.44924c-1.06321-.20912-2.04361-.06138-2.9412.44321-.89759.50459-1.46229,1.49366-1.69408,2.96719-.11715.74279-.14088,1.4296-.07118,2.06043-.28071-.22204-.68022-.3871-1.19851-.49517-1.05367-.19455-2.18927.03402-3.40682.68571-1.21503.63964-2.03285,1.57592-2.45344,2.80885-.20301.61169-.28598,1.16038-.2489,1.64605-.35857-.15023-.79726-.248-1.31607-.29329-1.06172-.09561-2.02707.13073-2.89604.67902-1.40291.87717-2.43125,2.31038-3.08502,4.29964.07218-2.03507-.35468-3.72769-1.28057-5.07788-.58948-.85241-1.36081-1.46603-2.314-1.84087l-1.25806-.30006c.24569-.51475.40777-1.14127.48625-1.87955.14491-1.47907-.21171-2.75458-1.06985-3.82651-.85563-1.08399-1.81807-1.65571-2.88733-1.71516l-1.35308.24611c.31601-.5504.56272-1.19071.74014-1.92094.37643-1.44337.25409-2.5757-.36704-3.39697-.62113-.82127-1.45701-1.3666-2.50765-1.63599l-1.37862-.17427c.47973-.49111,1.49308-.97785,3.04007-1.46023.96837-.30117,1.70619-.46176,2.21346-.48176l.48139.04378"/><path id="path2210-4" class="cls-10" d="m604.36992,12.40365c.83681-.45438,1.74941-.57852,2.73778-.37243,1.00043.20861,1.78735.68713,2.36078,1.43557.57091.76049.76715,1.56863.5887,2.42442s-.68131,1.51815-1.50858,1.9871c-.83933.46643-1.75318.5966-2.74155.39051s-1.77404-.69064-2.35701-1.45365c-.57091-.76049-.76715-1.56863-.5887-2.42442s.68131-1.51815,1.50858-1.9871"/><path id="path2212-4" class="cls-10" d="m609.91055,14.33248l-2.37955-1.79794,1.67292-2.59428.70663,4.39222"/><path id="path2214-4" class="cls-10" d="m606.57353,12.24056l-2.89981.6971,2.40313-3.74378.49668,3.04668"/></g></g></g></g><g id="use1736-2"><g id="sprite18-5"><g id="use2205-5"><g id="shape16-5"><path id="path2208-5" class="cls-10" d="m331.59734,15.83065l.13343.28117c.11897.2264.25556.44012.40978.64118.48799.63842,1.04788,1.0235,1.67967,1.15524.6344.13228,1.28689.00137,1.9575-.39274.20867-.12539.40755-.26916.59664-.43133l.2182-.20377.14326.03804c.12825.05126.27345.13875.43563.26246.25832.19825.42951.40284.51356.61379l-.29027-.0973c-.23028-.04529-.44263-.0133-.63705.096-.19441.10929-.31672.32352-.36693.64268-.02537.16088-.03051.30964-.01542.44628-.0608-.04809-.14733-.08384-.25959-.10725-.22822-.04214-.47418.00737-.7379.14852-.26317.13854-.4403.34134-.5314.60838-.04397.13249-.06194.25133-.05391.35652-.07766-.03254-.17268-.05371-.28505-.06352-.22996-.02071-.43905.02831-.62726.14707-.30386.18999-.52659.50041-.6682.93128.01563-.44078-.07682-.8074-.27736-1.09984-.12768-.18463-.29474-.31753-.5012-.39872l-.27249-.06499c.05321-.11149.08832-.24719.10532-.4071.03139-.32036-.04586-.59662-.23172-.8288-.18532-.23479-.39378-.35862-.62538-.37149l-.29307.05331c.06845-.11921.12188-.2579.16031-.41606.08153-.31263.05503-.55788-.0795-.73576-.13453-.17788-.31558-.296-.54314-.35435l-.2986-.03775c.10391-.10637.32339-.2118.65846-.31628.20974-.06523.36955-.10001.47942-.10435l.10427.00948"/><path id="path2210-5" class="cls-10" d="m333.3755,17.31699c.18125-.09842.37891-.1253.59299-.08067.21669.04518.38713.14883.51133.31094.12366.16472.16616.33976.12751.52511s-.14757.32882-.32675.43039c-.18179.10103-.37973.12922-.5938.08458s-.38425-.14959-.51051-.31485c-.12366-.16472-.16616-.33976-.12751-.52511s.14757-.32882.32675-.43039"/><path id="path2212-5" class="cls-10" d="m334.57557,17.73476l-.5154-.38942.36234-.56191.15305.95133"/><path id="path2214-5" class="cls-10" d="m333.85279,17.28166l-.62808.15099.5205-.81088.10758.65989"/></g></g></g></g><g id="use1736-3"><g id="sprite18-6"><g id="use2205-6"><g id="shape16-6"><path id="path2208-6" class="cls-10" d="m496.71785,22.241l.35421.74642c.31582.60101.67844,1.16839,1.08784,1.70214,1.29547,1.69481,2.78181,2.71708,4.459,3.06681,1.68413.35117,3.41631.00364,5.19656-1.0426.55395-.33287,1.08191-.71455,1.58389-1.14504l.57925-.54093.38031.101c.34045.13608.72594.36833,1.15646.69675.68577.52629,1.14022,1.06942,1.36335,1.62941l-.77057-.25831c-.61133-.12024-1.17505-.0353-1.69116.25484-.51611.29014-.8408.85884-.97408,1.70611-.06736.4271-.08101.82201-.04093,1.18473-.16141-.12767-.39112-.22258-.68913-.28472-.60585-.11187-1.25881.01956-1.95889.39428-.69863.36779-1.16887.90614-1.41071,1.61506-.11673.35172-.16444.66721-.14312.94646-.20618-.08638-.45842-.1426-.75673-.16864-.61048-.05498-1.16554.07517-1.6652.39043-.80666.50436-1.39795,1.32845-1.77386,2.47225.0415-1.17014-.20394-2.14339-.73632-2.91973-.33895-.49013-.78246-.84295-1.33053-1.05848l-.72337-.17253c.14127-.29598.23446-.65622.27959-1.08072.08332-.85045-.12173-1.58386-.61515-2.20021-.49198-.62328-1.04537-.95202-1.66019-.9862l-.77801.14151c.1817-.31647.32356-.68465.42557-1.10452.21645-.82993.1461-1.481-.21104-1.95323-.35714-.47222-.83777-.78578-1.44188-.94068l-.79269-.1002c.27584-.28238.85851-.56225,1.74801-.83962.55681-.17317.98104-.26551,1.27272-.27701l.27679.02517"/><path id="path2210-6" class="cls-10" d="m501.43834,26.18676c.48116-.26126,1.00589-.33265,1.5742-.21414.57524.11995,1.02771.39509,1.35743.82544.32827.43728.4411.90195.3385,1.39402s-.39175.87292-.86742,1.14256c-.48261.26819-1.00806.34304-1.57637.22454s-1.02006-.39711-1.35526-.83584c-.32827-.43728-.4411-.90195-.3385-1.39402s.39174-.87292.86742-1.14256"/><path id="path2212-6" class="cls-10" d="m504.62415,27.29582l-1.36822-1.0338.96191-1.49169.40631,2.52549"/><path id="path2214-6" class="cls-10" d="m502.70539,26.09299l-1.66736.40083,1.38178-2.15264.28559,1.75181"/></g></g></g></g><g id="use1736-4"><g id="sprite18-7"><g id="use2205-7"><g id="shape16-7"><path id="path2208-7" class="cls-10" d="m436.55465,8.88964l.17208.36262c.15343.29198.32959.56761.52848.82691.62935.82335,1.35142,1.31998,2.16622,1.48988.81816.1706,1.65967.00177,2.52453-.5065.26911-.16171.5256-.34713.76947-.55627l.2814-.26279.18476.04907c.16539.06611.35267.17894.56181.33849.33315.25567.55393.51953.66232.79158l-.37435-.12549c-.29699-.05841-.57085-.01715-.82158.1238-.25073.14095-.40847.41723-.47322.82884-.03273.20749-.03935.39934-.01988.57555-.07841-.06202-.19001-.10813-.33479-.13832-.29433-.05435-.61154.0095-.95164.19154-.3394.17867-.56784.44021-.68533.78461-.05671.17087-.07988.32413-.06953.4598-.10016-.04197-.2227-.06927-.36762-.08193-.29658-.02671-.56623.03652-.80896.18967-.39188.24502-.67913.64537-.86175,1.20104.02016-.56846-.09907-1.04127-.35771-1.41843-.16466-.23811-.38012-.40951-.64638-.51422l-.35142-.08382c.06863-.14379.1139-.3188.13583-.52502.04048-.41316-.05914-.76945-.29885-1.06888-.23901-.3028-.50785-.4625-.80653-.4791l-.37796.06875c.08827-.15375.15719-.33261.20675-.53659.10515-.40318.07098-.71948-.10253-.94889-.1735-.22941-.40699-.38174-.70047-.45699l-.3851-.04868c.134-.13718.41707-.27315.8492-.40789.2705-.08413.4766-.12899.6183-.13457l.13447.01223"/><path id="path2210-7" class="cls-10" d="m438.8479,10.80652c.23375-.12692.48867-.1616.76476-.10403.27945.05827.49927.19194.65945.401.15948.21243.21429.43817.16444.67722s-.19031.42407-.4214.55507c-.23445.13029-.48972.16665-.76581.10908s-.49555-.19292-.65839-.40605c-.15948-.21243-.21429-.43817-.16444-.67722s.19031-.42407.4214-.55507"/><path id="path2212-7" class="cls-10" d="m440.39559,11.34531l-.66469-.50223.4673-.72467.19739,1.2269"/><path id="path2214-7" class="cls-10" d="m439.46344,10.76097l-.81002.19472.67128-1.04577.13874.85104"/></g></g></g></g></g></svg>